<svg id="svg" width="400" height="452.3949169110459" viewBox="0 0 400 452.3949169110459" xmlns="http://www.w3.org/2000/svg" xmlns:xlink="http://www.w3.org/1999/xlink"><g id="svgg"><path id="path0" d="M197.438 8.738 C 197.342 8.827,194.448 9.002,191.007 9.127 C 185.126 9.341,183.768 9.435,178.886 9.966 C 177.810 10.084,176.051 10.269,174.976 10.379 C 173.900 10.489,171.965 10.759,170.674 10.979 C 169.384 11.199,167.625 11.464,166.764 11.568 C 165.904 11.672,164.936 11.854,164.614 11.973 C 164.291 12.092,163.412 12.266,162.659 12.361 C 161.906 12.456,160.938 12.648,160.508 12.787 C 160.078 12.927,159.462 13.086,159.140 13.140 C 156.966 13.508,155.350 13.857,151.906 14.706 C 149.756 15.235,147.732 15.777,147.410 15.909 C 147.087 16.041,146.471 16.212,146.041 16.290 C 145.611 16.368,144.995 16.544,144.673 16.681 C 144.350 16.819,143.910 16.972,143.695 17.023 C 141.604 17.510,139.697 18.135,139.296 18.463 C 139.027 18.684,138.807 18.733,138.807 18.573 C 138.807 18.413,138.543 18.501,138.221 18.768 C 137.898 19.036,137.634 19.124,137.634 18.964 C 137.634 18.804,137.370 18.892,137.048 19.159 C 136.725 19.427,136.461 19.515,136.461 19.355 C 136.461 19.195,136.197 19.283,135.875 19.550 C 135.552 19.818,135.288 19.940,135.288 19.821 C 135.288 19.531,128.977 21.846,128.352 22.366 C 128.081 22.590,127.859 22.644,127.859 22.486 C 127.859 22.327,127.419 22.486,126.882 22.838 C 126.344 23.190,125.904 23.380,125.904 23.260 C 125.904 23.140,125.508 23.260,125.024 23.526 C 124.541 23.792,123.955 24.042,123.724 24.081 C 122.822 24.236,104.414 33.116,104.008 33.593 C 103.900 33.719,103.109 34.187,102.248 34.634 C 99.930 35.836,98.822 36.502,98.228 37.048 C 97.935 37.317,97.444 37.537,97.137 37.537 C 96.830 37.537,96.579 37.701,96.579 37.901 C 96.579 38.102,96.183 38.388,95.699 38.537 C 95.215 38.687,94.027 39.365,93.060 40.046 C 92.092 40.726,90.843 41.511,90.284 41.790 C 89.725 42.069,88.764 42.731,88.147 43.261 C 87.530 43.791,86.404 44.600,85.644 45.058 C 84.884 45.517,83.803 46.256,83.241 46.700 C 82.680 47.144,81.827 47.771,81.347 48.094 C 80.867 48.416,80.153 48.944,79.761 49.267 C 79.368 49.589,78.582 50.194,78.013 50.611 C 77.444 51.028,76.594 51.707,76.124 52.122 C 75.654 52.536,74.653 53.339,73.900 53.906 C 73.148 54.473,72.338 55.112,72.101 55.327 C 71.864 55.543,70.744 56.510,69.613 57.478 C 65.162 61.285,55.073 71.168,51.206 75.511 C 49.817 77.070,48.416 78.625,48.094 78.966 C 47.771 79.307,46.197 81.254,44.595 83.293 C 42.993 85.331,41.410 87.298,41.076 87.665 C 40.112 88.722,39.718 89.254,38.821 90.714 C 38.358 91.466,37.643 92.442,37.231 92.882 C 36.819 93.322,36.410 93.850,36.322 94.055 C 36.234 94.260,34.477 96.979,32.416 100.098 C 30.355 103.216,28.231 106.559,27.695 107.527 C 22.937 116.115,21.470 118.883,19.418 123.148 C 18.119 125.847,17.023 128.231,16.983 128.446 C 16.943 128.661,16.549 129.629,16.108 130.596 C 15.666 131.564,14.749 133.763,14.068 135.484 C 13.388 137.204,12.482 139.470,12.054 140.518 C 11.626 141.566,11.206 142.783,11.122 143.222 C 10.883 144.464,9.705 147.952,9.378 148.387 C 9.216 148.602,8.941 149.394,8.767 150.147 C 8.375 151.844,8.392 151.784,8.084 152.493 C 7.944 152.815,7.766 153.431,7.688 153.861 C 7.610 154.291,7.446 154.907,7.324 155.230 C 7.202 155.552,7.015 156.256,6.909 156.794 C 6.803 157.331,6.613 158.167,6.486 158.651 C 6.261 159.513,6.085 160.207,5.647 161.975 C 5.527 162.458,5.378 163.030,5.317 163.245 C 5.012 164.313,4.678 165.708,4.472 166.764 C 4.005 169.167,3.866 169.914,3.733 170.733 C 3.658 171.196,3.496 171.900,3.373 172.297 C 3.090 173.216,2.663 176.184,2.594 177.713 C 2.565 178.358,2.425 178.974,2.283 179.083 C 2.048 179.262,1.728 181.673,1.295 186.510 C 1.209 187.478,1.056 189.150,0.955 190.225 C 0.351 196.697,0.255 199.652,0.279 210.948 C 0.294 217.830,0.419 224.604,0.556 226.002 C 0.909 229.581,1.102 231.704,1.323 234.409 C 1.428 235.699,1.625 237.195,1.761 237.732 C 1.896 238.270,2.062 239.326,2.129 240.078 C 2.196 240.831,2.388 242.151,2.556 243.011 C 2.724 243.871,2.871 244.883,2.883 245.259 C 2.895 245.635,2.999 245.944,3.114 245.944 C 3.229 245.945,3.358 246.437,3.399 247.038 C 3.441 247.640,3.585 248.651,3.718 249.286 C 3.852 249.921,4.061 251.188,4.182 252.102 C 4.304 253.016,4.556 253.763,4.743 253.763 C 4.930 253.763,5.050 253.895,5.010 254.057 C 4.941 254.329,5.340 256.844,5.739 258.651 C 5.833 259.081,5.949 259.609,5.997 259.824 C 6.044 260.039,6.185 260.391,6.311 260.606 C 6.596 261.095,7.155 263.147,7.216 263.930 C 7.241 264.252,7.443 264.868,7.664 265.298 C 7.886 265.728,8.045 266.344,8.018 266.667 C 7.990 266.989,8.132 267.473,8.333 267.742 C 8.534 268.011,8.582 268.231,8.441 268.231 C 8.299 268.231,8.401 268.627,8.667 269.110 C 8.933 269.594,9.187 270.204,9.231 270.464 C 9.350 271.169,11.017 276.185,11.283 276.637 C 11.409 276.852,11.562 277.248,11.621 277.517 C 11.834 278.473,12.007 278.998,12.491 280.156 C 12.760 280.802,13.025 281.505,13.078 281.720 C 13.395 282.988,15.824 288.839,17.217 291.691 C 17.585 292.444,17.996 293.531,18.132 294.108 C 18.268 294.684,18.655 295.432,18.992 295.769 C 19.330 296.107,19.527 296.383,19.429 296.383 C 19.332 296.383,20.199 298.183,21.357 300.382 C 22.514 302.581,23.460 304.578,23.460 304.819 C 23.460 305.060,23.809 305.659,24.236 306.151 C 24.663 306.643,25.226 307.638,25.488 308.361 C 25.749 309.085,26.085 309.677,26.234 309.677 C 26.382 309.677,26.787 310.337,27.134 311.144 C 27.830 312.760,28.483 313.862,29.228 314.674 C 29.497 314.967,29.717 315.459,29.717 315.766 C 29.717 316.073,29.892 316.325,30.108 316.325 C 30.323 316.325,30.499 316.588,30.499 316.911 C 30.499 317.234,30.671 317.498,30.882 317.498 C 31.093 317.498,31.376 317.937,31.511 318.475 C 31.646 319.013,31.913 319.453,32.105 319.453 C 32.297 319.453,32.454 319.717,32.454 320.039 C 32.454 320.362,32.630 320.626,32.845 320.626 C 33.060 320.626,33.236 320.890,33.236 321.212 C 33.236 321.535,33.412 321.799,33.627 321.799 C 33.842 321.799,34.018 322.063,34.018 322.385 C 34.018 322.708,34.194 322.972,34.409 322.972 C 34.624 322.972,34.800 323.236,34.800 323.558 C 34.800 323.881,34.976 324.145,35.191 324.145 C 35.406 324.145,35.582 324.409,35.582 324.731 C 35.582 325.054,35.753 325.318,35.963 325.318 C 36.172 325.318,36.621 325.855,36.961 326.512 C 37.300 327.168,37.877 328.016,38.242 328.395 C 38.874 329.052,41.203 332.186,42.033 333.498 C 42.248 333.838,42.644 334.256,42.913 334.428 C 43.182 334.600,43.402 334.954,43.402 335.214 C 43.402 335.474,43.754 335.907,44.184 336.175 C 44.614 336.444,44.966 336.857,44.966 337.093 C 44.966 337.329,45.406 337.868,45.943 338.291 C 46.481 338.714,46.921 339.209,46.921 339.392 C 46.921 339.722,47.486 340.379,50.760 343.856 C 51.689 344.843,52.379 345.650,52.292 345.650 C 52.005 345.650,67.015 360.390,69.208 362.263 C 70.391 363.273,71.667 364.454,72.043 364.889 C 72.419 365.323,72.727 365.567,72.727 365.430 C 72.727 365.294,73.194 365.488,73.764 365.861 C 77.217 368.124,82.661 366.672,84.599 362.973 C 84.915 362.370,85.496 361.520,85.891 361.083 C 90.846 355.601,92.802 339.362,89.139 334.115 C 88.989 333.900,88.759 333.273,88.628 332.721 C 88.496 332.169,88.032 331.307,87.596 330.804 C 87.160 330.301,86.804 329.653,86.804 329.363 C 86.804 329.074,86.628 328.837,86.413 328.837 C 86.197 328.837,86.022 328.663,86.022 328.450 C 86.022 328.042,85.400 327.224,83.480 325.104 C 82.835 324.392,81.779 323.172,81.134 322.393 C 80.489 321.614,79.393 320.326,78.699 319.530 C 78.005 318.735,77.433 317.859,77.428 317.583 C 77.423 317.307,77.155 316.981,76.833 316.857 C 76.510 316.733,76.246 316.387,76.246 316.087 C 76.246 315.788,76.066 315.543,75.846 315.543 C 75.625 315.543,75.278 315.103,75.073 314.565 C 74.869 314.027,74.533 313.587,74.327 313.587 C 74.121 313.587,73.848 313.256,73.720 312.852 C 73.591 312.447,73.115 311.700,72.662 311.190 C 71.489 309.872,68.426 305.124,68.426 304.624 C 68.426 304.392,68.250 304.203,68.035 304.203 C 67.820 304.203,67.644 303.939,67.644 303.617 C 67.644 303.294,67.472 303.030,67.261 303.030 C 67.050 303.030,66.767 302.590,66.632 302.053 C 66.497 301.515,66.241 301.075,66.064 301.075 C 65.887 301.075,65.618 300.679,65.467 300.196 C 65.316 299.712,65.061 299.228,64.901 299.120 C 64.740 299.013,64.280 298.266,63.878 297.461 C 63.476 296.657,61.602 292.874,59.712 289.055 C 57.822 285.236,55.975 281.509,55.606 280.773 C 55.238 280.038,54.924 279.334,54.909 279.209 C 54.875 278.935,54.007 276.894,53.526 275.958 C 53.334 275.585,53.177 275.084,53.177 274.844 C 53.177 274.605,52.932 273.855,52.632 273.177 C 52.058 271.878,51.541 270.578,51.402 270.088 C 51.357 269.927,51.276 269.707,51.222 269.599 C 51.168 269.492,51.099 269.272,51.069 269.110 C 51.039 268.949,50.908 268.641,50.778 268.426 C 50.437 267.860,49.649 265.339,49.421 264.085 C 49.314 263.492,49.106 262.819,48.959 262.588 C 48.812 262.358,48.675 262.082,48.654 261.975 C 48.465 260.995,47.929 259.171,47.477 257.967 C 47.175 257.160,46.996 256.500,47.081 256.500 C 47.165 256.500,46.893 255.225,46.475 253.666 C 46.058 252.107,45.634 250.391,45.533 249.853 C 45.432 249.316,45.230 248.436,45.085 247.898 C 44.770 246.726,44.647 246.123,44.411 244.575 C 44.313 243.930,44.107 242.786,43.954 242.033 C 43.801 241.281,43.633 240.401,43.581 240.078 C 43.199 237.744,42.974 236.099,42.802 234.409 C 42.693 233.333,42.434 231.046,42.227 229.326 C 40.887 218.209,40.959 198.990,42.380 188.270 C 43.150 182.471,43.395 180.714,43.581 179.668 C 43.657 179.238,43.830 178.108,43.965 177.158 C 44.099 176.207,44.389 174.711,44.608 173.834 C 44.827 172.956,45.051 171.975,45.105 171.652 C 45.159 171.329,45.406 170.362,45.653 169.501 C 45.900 168.641,46.189 167.498,46.296 166.960 C 46.697 164.939,47.824 160.610,48.469 158.612 C 49.167 156.453,51.333 150.021,52.045 147.996 C 53.409 144.116,57.347 135.007,59.398 130.987 C 60.551 128.729,61.504 126.794,61.518 126.686 C 61.531 126.579,62.266 125.259,63.152 123.754 C 64.038 122.248,64.885 120.753,65.034 120.430 C 65.184 120.108,65.655 119.316,66.080 118.671 C 66.506 118.025,66.974 117.246,67.122 116.939 C 67.422 116.314,72.957 108.081,73.544 107.386 C 73.751 107.141,74.442 106.133,75.078 105.146 C 75.715 104.160,76.766 102.798,77.414 102.120 C 78.062 101.442,78.592 100.753,78.592 100.590 C 78.592 100.427,79.296 99.523,80.156 98.582 C 81.017 97.641,81.720 96.753,81.720 96.609 C 81.720 96.464,82.241 95.915,82.877 95.387 C 83.513 94.860,84.040 94.252,84.048 94.037 C 84.064 93.608,84.548 93.088,92.505 84.955 C 95.498 81.895,98.085 79.387,98.253 79.383 C 98.421 79.378,99.205 78.671,99.996 77.810 C 100.787 76.950,101.585 76.246,101.769 76.246 C 101.953 76.246,102.554 75.711,103.104 75.057 C 103.655 74.403,104.195 73.957,104.304 74.066 C 104.413 74.175,104.844 73.831,105.261 73.301 C 105.678 72.770,106.232 72.336,106.491 72.336 C 106.751 72.336,107.217 71.984,107.527 71.554 C 107.837 71.124,108.297 70.772,108.549 70.772 C 108.801 70.772,109.109 70.508,109.232 70.186 C 109.356 69.863,109.708 69.599,110.014 69.599 C 110.321 69.599,110.673 69.335,110.796 69.013 C 110.920 68.690,111.272 68.426,111.578 68.426 C 111.885 68.426,112.237 68.162,112.360 67.840 C 112.484 67.517,112.836 67.253,113.142 67.253 C 113.449 67.253,113.801 66.989,113.924 66.667 C 114.048 66.344,114.419 66.080,114.748 66.080 C 115.078 66.080,115.347 65.904,115.347 65.689 C 115.347 65.474,115.611 65.298,115.934 65.298 C 116.256 65.298,116.520 65.145,116.520 64.959 C 116.520 64.682,119.776 62.468,124.536 59.510 C 124.966 59.243,125.934 58.633,126.686 58.155 C 127.439 57.677,128.143 57.295,128.250 57.306 C 128.358 57.317,128.780 57.015,129.189 56.634 C 129.598 56.253,130.082 56.033,130.264 56.146 C 130.447 56.259,130.596 56.176,130.596 55.962 C 130.596 55.749,131.212 55.351,131.965 55.079 C 132.717 54.807,133.333 54.433,133.333 54.248 C 133.333 54.064,133.494 54.012,133.691 54.134 C 133.888 54.255,134.108 54.198,134.180 54.007 C 134.374 53.492,144.542 48.484,144.823 48.765 C 144.955 48.898,145.064 48.791,145.064 48.527 C 145.064 48.263,145.239 48.156,145.455 48.289 C 145.670 48.422,145.846 48.345,145.846 48.117 C 145.846 47.889,146.010 47.703,146.211 47.703 C 146.412 47.703,147.072 47.498,147.677 47.247 C 148.283 46.996,148.866 46.770,148.974 46.744 C 149.081 46.719,149.542 46.490,149.997 46.236 C 150.453 45.983,150.937 45.886,151.073 46.022 C 151.209 46.158,151.320 46.035,151.320 45.748 C 151.320 45.461,151.435 45.342,151.577 45.484 C 151.718 45.625,152.055 45.558,152.325 45.334 C 152.595 45.110,153.287 44.841,153.862 44.737 C 154.438 44.632,155.333 44.269,155.851 43.929 C 156.370 43.590,156.794 43.442,156.794 43.600 C 156.794 43.759,157.058 43.669,157.380 43.402 C 157.703 43.134,157.967 43.029,157.967 43.167 C 157.967 43.306,158.407 43.132,158.944 42.779 C 159.482 42.427,159.922 42.269,159.922 42.427 C 159.922 42.586,160.186 42.496,160.508 42.229 C 160.831 41.961,161.095 41.873,161.095 42.033 C 161.095 42.193,161.359 42.105,161.681 41.838 C 162.004 41.570,162.268 41.482,162.268 41.642 C 162.268 41.802,162.532 41.714,162.854 41.447 C 163.177 41.179,163.441 41.091,163.441 41.251 C 163.441 41.411,163.661 41.362,163.930 41.142 C 164.360 40.789,167.088 39.923,168.415 39.718 C 168.677 39.678,169.015 39.522,169.164 39.373 C 169.314 39.223,169.900 39.101,170.466 39.101 C 171.032 39.101,171.663 38.948,171.867 38.761 C 172.202 38.454,178.431 36.814,180.425 36.507 C 180.869 36.439,182.375 36.128,183.773 35.817 C 185.171 35.505,187.026 35.146,187.894 35.018 C 188.763 34.891,189.881 34.708,190.379 34.612 C 190.876 34.516,192.055 34.347,192.998 34.236 C 193.941 34.125,195.111 33.945,195.597 33.836 C 196.083 33.726,197.537 33.535,198.827 33.410 C 200.117 33.285,202.669 33.034,204.497 32.851 C 206.325 32.669,214.066 32.611,221.701 32.722 C 238.102 32.960,240.044 32.951,242.620 32.623 C 245.625 32.241,246.692 32.022,248.094 31.497 C 251.224 30.325,251.808 30.132,251.808 30.268 C 251.808 30.428,255.699 28.473,258.016 27.148 C 259.944 26.045,261.236 24.672,261.634 23.299 C 262.019 21.976,261.732 19.941,261.162 19.941 C 260.964 19.941,260.802 19.704,260.802 19.414 C 260.802 18.925,258.576 17.686,257.266 17.445 C 256.953 17.388,255.396 16.943,253.807 16.458 C 250.318 15.392,241.970 13.299,240.428 13.103 C 239.818 13.026,239.175 12.875,239.001 12.767 C 238.827 12.659,237.840 12.472,236.809 12.351 C 235.778 12.229,234.809 12.052,234.655 11.957 C 234.501 11.862,233.679 11.693,232.828 11.581 C 231.977 11.470,230.225 11.198,228.935 10.978 C 227.644 10.757,225.533 10.470,224.242 10.338 C 222.952 10.206,221.281 10.028,220.528 9.942 C 214.701 9.275,197.813 8.395,197.438 8.738 M350.273 82.014 C 349.132 83.356,348.297 85.709,348.521 86.953 C 348.985 89.525,349.174 90.129,349.556 90.256 C 349.773 90.329,349.951 90.554,349.951 90.758 C 349.951 90.962,350.567 91.669,351.320 92.330 C 352.072 92.991,352.688 93.708,352.688 93.924 C 352.688 94.139,353.128 94.662,353.666 95.085 C 354.203 95.507,354.643 95.994,354.643 96.167 C 354.643 96.339,355.347 97.250,356.207 98.191 C 357.067 99.132,357.771 100.043,357.771 100.217 C 357.771 100.390,358.304 101.093,358.955 101.781 C 359.605 102.468,360.702 103.901,361.391 104.965 C 362.080 106.029,363.043 107.331,363.531 107.857 C 364.019 108.383,364.418 109.052,364.418 109.344 C 364.418 109.635,364.594 109.873,364.809 109.873 C 365.024 109.873,365.200 110.137,365.200 110.459 C 365.200 110.782,365.376 111.046,365.591 111.046 C 365.806 111.046,365.982 111.310,365.982 111.632 C 365.982 111.955,366.158 112.219,366.373 112.219 C 366.588 112.219,366.764 112.483,366.764 112.805 C 366.764 113.128,366.940 113.392,367.155 113.392 C 367.370 113.392,367.546 113.656,367.546 113.978 C 367.546 114.301,367.682 114.565,367.849 114.565 C 368.015 114.565,368.498 115.225,368.923 116.031 C 369.348 116.838,369.915 117.730,370.185 118.014 C 370.454 118.298,370.674 118.782,370.674 119.090 C 370.674 119.397,370.847 119.648,371.058 119.648 C 371.269 119.648,371.552 120.088,371.687 120.626 C 371.822 121.163,372.075 121.603,372.249 121.603 C 372.423 121.603,372.867 122.395,373.237 123.363 C 373.606 124.330,374.021 125.122,374.158 125.122 C 374.295 125.122,374.677 125.694,375.007 126.393 C 376.257 129.038,380.965 138.673,381.694 140.078 C 382.112 140.885,382.346 141.544,382.212 141.544 C 382.079 141.544,382.222 142.028,382.530 142.620 C 382.839 143.211,383.271 144.135,383.490 144.673 C 383.710 145.210,384.190 146.332,384.557 147.166 C 384.925 148.000,385.268 148.879,385.319 149.121 C 385.370 149.362,385.643 150.088,385.924 150.733 C 386.434 151.905,386.560 152.279,386.871 153.568 C 386.962 153.944,387.072 154.296,387.116 154.350 C 387.159 154.404,387.239 154.624,387.292 154.839 C 387.346 155.054,387.425 155.274,387.469 155.327 C 387.512 155.381,387.607 155.689,387.679 156.012 C 387.752 156.334,388.083 157.346,388.414 158.260 C 388.746 159.174,388.915 159.922,388.791 159.922 C 388.667 159.922,388.784 160.186,389.052 160.508 C 389.320 160.831,389.423 161.095,389.281 161.095 C 389.140 161.095,389.198 161.420,389.410 161.816 C 389.623 162.213,389.884 162.961,389.991 163.478 C 390.373 165.331,390.552 165.997,390.928 166.966 C 391.137 167.507,391.427 168.822,391.572 169.890 C 391.717 170.957,391.957 171.922,392.105 172.034 C 392.254 172.147,392.407 172.678,392.446 173.216 C 392.485 173.754,392.779 175.332,393.100 176.724 C 393.421 178.116,393.598 179.391,393.495 179.559 C 393.391 179.726,393.470 179.863,393.670 179.863 C 393.869 179.863,393.971 180.391,393.896 181.036 C 393.821 181.681,393.888 182.209,394.046 182.209 C 394.203 182.209,394.347 182.693,394.365 183.284 C 394.383 183.876,394.521 185.064,394.671 185.924 C 394.821 186.784,395.006 188.280,395.081 189.247 C 395.157 190.215,395.256 191.007,395.301 191.007 C 395.347 191.007,395.435 191.887,395.497 192.962 C 395.559 194.037,395.639 194.917,395.674 194.917 C 396.285 194.917,396.164 224.151,395.549 225.146 C 395.418 225.359,395.321 225.946,395.334 226.452 C 395.361 227.508,394.993 232.454,394.887 232.454 C 394.849 232.454,394.769 232.805,394.709 233.236 C 394.542 234.449,394.077 237.451,393.922 238.319 C 393.846 238.749,393.701 239.629,393.600 240.274 C 393.360 241.808,393.026 243.554,392.740 244.770 C 392.613 245.308,392.442 246.100,392.359 246.530 C 392.276 246.960,391.705 249.247,391.089 251.613 C 390.472 253.978,389.941 256.047,389.908 256.209 C 389.566 257.888,389.330 258.774,389.049 259.433 C 388.567 260.562,387.869 262.914,387.640 264.181 C 387.531 264.782,387.293 265.455,387.111 265.677 C 386.929 265.899,386.478 267.136,386.109 268.426 C 385.740 269.717,385.320 270.948,385.176 271.163 C 385.032 271.378,384.678 272.258,384.389 273.118 C 383.847 274.730,382.908 276.972,381.566 279.852 C 381.143 280.760,380.795 281.590,380.793 281.697 C 380.787 282.020,374.702 294.080,373.384 296.383 C 369.868 302.524,364.182 311.322,363.570 311.567 C 363.392 311.639,363.243 311.903,363.239 312.154 C 363.236 312.405,362.752 313.172,362.164 313.859 C 360.973 315.249,360.208 316.238,359.335 317.514 C 354.560 324.494,341.907 337.917,333.365 345.064 C 332.337 345.924,331.185 346.891,330.805 347.214 C 330.425 347.537,329.539 348.240,328.837 348.778 C 328.134 349.316,327.099 350.155,326.536 350.643 C 325.974 351.131,324.809 352.010,323.949 352.598 C 323.089 353.185,322.153 353.886,321.868 354.154 C 321.584 354.423,321.232 354.643,321.086 354.644 C 320.941 354.644,320.324 355.072,319.715 355.595 C 318.736 356.438,316.398 357.989,312.023 360.700 C 311.271 361.167,309.911 362.018,309.002 362.592 C 308.092 363.167,307.168 363.636,306.949 363.636 C 306.729 363.636,306.549 363.771,306.549 363.935 C 306.549 364.099,305.802 364.557,304.888 364.953 C 303.974 365.348,303.138 365.786,303.030 365.925 C 302.820 366.197,293.580 370.771,293.255 370.763 C 293.148 370.760,292.356 371.127,291.496 371.579 C 290.635 372.030,289.844 372.421,289.736 372.449 C 289.629 372.477,289.045 372.705,288.440 372.956 C 287.834 373.206,287.277 373.412,287.201 373.412 C 287.126 373.412,286.213 373.791,285.174 374.254 C 284.135 374.718,283.109 375.140,282.893 375.191 C 282.455 375.297,278.338 376.826,276.833 377.442 C 276.295 377.662,275.723 377.879,275.562 377.924 C 275.401 377.969,275.181 378.050,275.073 378.104 C 274.966 378.157,274.702 378.245,274.487 378.299 C 274.272 378.353,274.008 378.441,273.900 378.495 C 273.793 378.548,273.529 378.636,273.314 378.690 C 273.099 378.744,272.835 378.832,272.727 378.886 C 272.620 378.939,272.356 379.027,272.141 379.081 C 271.926 379.135,271.662 379.223,271.554 379.277 C 271.337 379.385,271.330 379.387,269.404 379.833 C 268.651 380.008,267.859 380.257,267.644 380.387 C 267.429 380.516,266.901 380.674,266.471 380.736 C 266.041 380.799,265.425 380.962,265.103 381.100 C 264.318 381.434,263.944 381.540,262.561 381.816 C 261.916 381.945,260.684 382.248,259.824 382.489 C 258.964 382.730,257.908 382.984,257.478 383.054 C 257.048 383.125,256.256 383.296,255.718 383.436 C 255.181 383.576,254.477 383.742,254.154 383.805 C 253.832 383.868,253.128 384.008,252.590 384.115 C 252.053 384.223,251.085 384.398,250.440 384.503 C 249.795 384.609,248.123 384.893,246.725 385.134 C 242.210 385.913,242.298 385.902,234.018 386.702 C 226.092 387.468,225.159 387.586,223.265 388.063 C 222.727 388.199,221.896 388.391,221.418 388.491 C 220.940 388.591,220.060 388.873,219.463 389.118 C 218.866 389.363,218.201 389.606,217.986 389.659 C 216.403 390.049,211.341 392.842,209.189 394.513 C 207.915 395.502,207.415 395.850,204.451 397.810 C 203.509 398.434,202.649 399.067,202.542 399.218 C 202.366 399.464,200.423 400.806,198.058 402.314 C 194.822 404.378,194.889 410.549,198.151 410.888 C 202.343 411.325,214.071 410.793,222.287 409.793 C 226.442 409.288,227.390 409.158,232.258 408.432 C 232.581 408.383,233.372 408.223,234.018 408.074 C 234.663 407.926,235.806 407.707,236.559 407.588 C 238.401 407.298,238.930 407.194,240.078 406.903 C 240.616 406.767,241.496 406.571,242.033 406.469 C 242.571 406.367,244.990 405.768,247.410 405.139 C 249.829 404.510,251.808 404.085,251.808 404.196 C 251.808 404.306,252.033 404.211,252.307 403.983 C 252.581 403.756,253.241 403.498,253.773 403.410 C 254.305 403.322,255.218 403.054,255.801 402.814 C 256.384 402.573,257.352 402.296,257.952 402.198 C 258.551 402.100,259.086 401.983,259.140 401.938 C 259.194 401.894,259.413 401.813,259.629 401.760 C 259.844 401.706,260.108 401.618,260.215 401.564 C 260.323 401.510,260.587 401.422,260.802 401.369 C 261.017 401.315,261.281 401.227,261.388 401.173 C 261.496 401.119,261.760 401.031,261.975 400.978 C 262.190 400.924,262.454 400.836,262.561 400.782 C 262.669 400.728,262.933 400.640,263.148 400.587 C 263.363 400.533,263.627 400.445,263.734 400.391 C 263.842 400.337,264.062 400.257,264.223 400.212 C 264.384 400.167,265.044 399.907,265.689 399.635 C 266.334 399.363,267.126 399.083,267.449 399.014 C 267.771 398.944,268.079 398.851,268.133 398.808 C 268.187 398.765,268.363 398.701,268.524 398.666 C 268.685 398.632,269.213 398.384,269.697 398.115 C 270.181 397.846,270.577 397.725,270.577 397.845 C 270.577 397.965,271.017 397.775,271.554 397.422 C 272.092 397.070,272.532 396.894,272.532 397.031 C 272.532 397.169,272.972 396.993,273.509 396.640 C 274.047 396.288,274.487 396.112,274.487 396.249 C 274.487 396.387,274.963 396.187,275.545 395.806 C 276.127 395.424,276.657 395.160,276.722 395.218 C 276.787 395.276,277.345 395.063,277.960 394.745 C 278.576 394.427,279.190 394.276,279.325 394.411 C 279.460 394.546,279.570 394.451,279.570 394.200 C 279.570 393.949,279.702 393.780,279.863 393.824 C 280.024 393.868,280.706 393.612,281.378 393.253 C 282.049 392.895,282.709 392.712,282.844 392.847 C 282.979 392.982,283.089 392.877,283.089 392.613 C 283.089 392.349,283.265 392.242,283.480 392.375 C 283.695 392.508,283.871 392.420,283.871 392.180 C 283.871 391.939,284.032 391.842,284.229 391.964 C 284.425 392.085,284.645 392.052,284.717 391.889 C 284.884 391.514,291.786 388.098,292.180 388.197 C 292.341 388.237,292.473 388.083,292.473 387.856 C 292.473 387.628,292.649 387.550,292.864 387.683 C 293.079 387.816,293.255 387.739,293.255 387.511 C 293.255 387.283,293.387 387.130,293.548 387.170 C 293.710 387.211,294.545 386.815,295.406 386.291 C 296.266 385.767,297.058 385.338,297.165 385.337 C 297.273 385.337,297.908 384.946,298.578 384.468 C 299.247 383.991,299.882 383.688,299.988 383.794 C 300.095 383.901,300.404 383.719,300.676 383.392 C 300.948 383.064,301.386 382.796,301.649 382.796 C 301.912 382.796,302.447 382.443,302.837 382.011 C 303.227 381.580,303.625 381.305,303.721 381.401 C 303.817 381.497,304.269 381.227,304.726 380.802 C 305.183 380.377,305.956 379.928,306.444 379.806 C 306.932 379.683,307.331 379.426,307.331 379.234 C 307.331 379.043,307.509 378.886,307.727 378.886 C 308.195 378.886,312.943 375.717,313.131 375.278 C 313.203 375.112,313.511 374.976,313.816 374.976 C 314.120 374.976,314.370 374.804,314.370 374.595 C 314.370 374.385,314.941 373.921,315.640 373.564 C 316.339 373.207,317.052 372.674,317.224 372.381 C 317.396 372.088,317.773 371.848,318.062 371.848 C 318.351 371.848,318.688 371.584,318.812 371.261 C 318.936 370.938,319.288 370.674,319.594 370.674 C 319.900 370.674,320.252 370.411,320.376 370.088 C 320.500 369.765,320.871 369.501,321.200 369.501 C 321.529 369.501,321.799 369.320,321.799 369.098 C 321.799 368.876,322.107 368.578,322.483 368.435 C 322.859 368.292,323.495 367.760,323.896 367.253 C 324.297 366.747,324.703 366.411,324.799 366.507 C 324.896 366.603,325.361 366.304,325.833 365.843 C 326.306 365.382,327.271 364.565,327.977 364.027 C 329.413 362.935,331.192 361.346,334.159 358.509 C 335.258 357.458,336.239 356.598,336.340 356.598 C 336.440 356.598,338.897 354.223,341.800 351.320 C 344.704 348.416,346.997 346.041,346.897 346.041 C 346.797 346.041,347.610 345.117,348.703 343.988 C 349.795 342.859,351.796 340.616,353.148 339.003 C 354.500 337.390,355.918 335.786,356.298 335.438 C 356.678 335.090,356.989 334.645,356.989 334.449 C 356.989 334.253,357.341 333.839,357.771 333.529 C 358.201 333.219,358.553 332.815,358.553 332.631 C 358.553 332.315,361.594 328.148,362.749 326.882 C 363.043 326.559,363.759 325.565,364.340 324.672 C 364.921 323.779,366.276 321.751,367.351 320.164 C 369.554 316.914,369.946 316.304,371.072 314.370 C 371.511 313.617,372.212 312.473,372.630 311.828 C 373.048 311.183,373.826 309.863,374.357 308.895 C 374.889 307.928,375.867 306.168,376.531 304.985 C 378.023 302.327,381.497 295.361,382.772 292.473 C 383.294 291.290,384.314 289.016,385.039 287.419 C 386.383 284.461,387.187 282.310,389.805 274.682 C 391.019 271.143,392.572 266.356,392.786 265.494 C 392.812 265.386,392.932 265.034,393.052 264.712 C 393.172 264.389,393.654 262.454,394.123 260.411 C 394.592 258.368,395.134 256.256,395.327 255.718 C 395.520 255.181,395.758 254.301,395.855 253.763 C 395.952 253.226,396.296 251.554,396.621 250.049 C 396.945 248.543,397.318 246.520,397.450 245.552 C 397.700 243.712,397.816 242.996,398.174 241.056 C 398.394 239.868,398.629 238.189,399.025 234.995 C 399.145 234.027,399.352 232.620,399.484 231.867 C 399.899 229.515,399.976 191.974,399.573 188.856 C 398.689 182.035,398.444 180.258,398.194 178.886 C 398.077 178.240,397.894 177.185,397.788 176.540 C 397.682 175.894,397.527 175.015,397.443 174.585 C 397.359 174.154,397.192 173.099,397.071 172.239 C 396.950 171.378,396.737 170.323,396.597 169.892 C 396.457 169.462,396.302 168.847,396.251 168.524 C 396.201 168.201,396.054 167.498,395.925 166.960 C 395.796 166.422,395.597 165.455,395.481 164.809 C 395.366 164.164,395.007 162.669,394.684 161.486 C 394.361 160.303,394.051 159.120,393.997 158.858 C 393.942 158.595,393.774 158.258,393.625 158.108 C 393.475 157.959,393.353 157.482,393.353 157.050 C 393.353 156.366,392.994 155.001,392.256 152.884 C 392.144 152.561,392.030 152.209,392.003 152.102 C 391.908 151.727,389.380 144.082,389.158 143.500 C 389.035 143.177,388.868 142.565,388.786 142.139 C 388.705 141.714,388.468 141.195,388.259 140.986 C 388.050 140.777,387.879 140.331,387.879 139.994 C 387.879 139.658,387.503 138.681,387.044 137.824 C 386.584 136.967,386.244 136.266,386.287 136.266 C 386.447 136.266,385.853 134.660,385.215 133.364 C 384.852 132.628,384.539 131.924,384.520 131.800 C 384.453 131.369,383.142 128.435,381.896 125.925 C 381.208 124.538,380.692 123.349,380.748 123.283 C 380.891 123.115,378.849 119.107,378.499 118.866 C 378.343 118.759,377.557 117.351,376.754 115.738 C 375.951 114.125,374.874 112.102,374.360 111.241 C 373.847 110.381,373.302 109.413,373.149 109.091 C 372.996 108.768,372.377 107.818,371.773 106.979 C 371.169 106.141,370.674 105.217,370.674 104.927 C 370.674 104.636,370.527 104.399,370.346 104.399 C 370.166 104.399,369.682 103.697,369.271 102.839 C 368.860 101.982,368.392 101.278,368.231 101.275 C 368.069 101.273,367.937 101.083,367.937 100.852 C 367.937 100.357,365.582 96.832,365.125 96.644 C 364.952 96.572,364.806 96.308,364.803 96.057 C 364.799 95.806,364.359 95.187,363.825 94.680 C 363.291 94.174,362.854 93.602,362.854 93.410 C 362.854 93.217,362.546 92.737,362.170 92.342 C 361.794 91.948,360.782 90.607,359.922 89.364 C 359.062 88.121,358.000 86.700,357.563 86.206 C 357.126 85.713,356.334 84.730,355.804 84.023 C 353.669 81.178,351.617 80.433,350.273 82.014" stroke="none" fill="#fcfcfc" fill-rule="evenodd"/><path id="path1" d="M338.416 0.279 C 337.986 0.382,337.470 0.623,337.270 0.813 C 337.069 1.004,337.489 0.992,338.203 0.787 C 340.218 0.209,340.388 -0.195,338.416 0.279 M347.798 0.778 C 347.932 0.995,348.226 1.173,348.451 1.173 C 348.676 1.173,349.736 1.613,350.806 2.151 C 352.988 3.247,353.662 3.414,352.438 2.557 C 351.288 1.752,347.503 0.300,347.798 0.778 M334.409 1.886 C 333.280 2.443,332.356 3.019,332.356 3.166 C 332.356 3.369,335.328 2.049,336.624 1.271 C 337.666 0.645,335.965 1.118,334.409 1.886 M330.443 4.324 C 329.089 5.452,329.594 5.581,330.987 4.463 C 331.632 3.946,331.984 3.528,331.769 3.534 C 331.554 3.540,330.957 3.896,330.443 4.324 M355.034 4.801 C 355.034 4.876,355.585 5.454,356.258 6.085 C 357.278 7.043,357.407 7.089,357.031 6.363 C 356.654 5.634,355.034 4.367,355.034 4.801 M327.670 6.238 C 327.135 6.649,326.783 7.069,326.888 7.172 C 326.992 7.275,327.605 6.936,328.250 6.419 C 329.631 5.311,329.093 5.144,327.670 6.238 M323.796 9.016 C 322.442 10.144,322.946 10.273,324.340 9.156 C 324.985 8.638,325.337 8.220,325.122 8.226 C 324.907 8.232,324.310 8.588,323.796 9.016 M321.022 10.930 C 320.488 11.341,320.136 11.761,320.240 11.864 C 320.345 11.967,320.958 11.628,321.603 11.111 C 322.984 10.004,322.446 9.836,321.022 10.930 M359.887 11.283 C 360.001 11.467,360.280 12.107,360.508 12.706 C 360.735 13.304,361.017 13.698,361.135 13.580 C 361.366 13.349,360.230 10.948,359.889 10.948 C 359.774 10.948,359.773 11.099,359.887 11.283 M314.375 15.622 C 313.841 16.033,313.489 16.453,313.593 16.556 C 313.698 16.659,314.311 16.320,314.956 15.803 C 316.337 14.696,315.799 14.529,314.375 15.622 M361.772 18.768 C 361.772 19.521,361.853 19.829,361.951 19.453 C 362.049 19.076,362.049 18.460,361.951 18.084 C 361.853 17.708,361.772 18.016,361.772 18.768 M307.728 20.314 C 307.194 20.725,306.842 21.145,306.946 21.248 C 307.051 21.351,307.664 21.012,308.309 20.495 C 309.690 19.388,309.152 19.221,307.728 20.314 M361.534 22.107 C 361.400 22.456,361.305 23.036,361.324 23.395 C 361.342 23.753,361.513 23.528,361.702 22.894 C 362.071 21.659,361.940 21.049,361.534 22.107 M301.081 25.006 C 300.547 25.417,300.195 25.837,300.299 25.940 C 300.403 26.043,301.017 25.704,301.662 25.187 C 303.042 24.080,302.505 23.913,301.081 25.006 M359.998 26.804 C 358.562 29.731,358.695 30.077,360.162 27.234 C 360.811 25.976,361.277 24.881,361.197 24.801 C 361.117 24.721,360.577 25.622,359.998 26.804 M294.434 29.698 C 293.900 30.109,293.548 30.529,293.652 30.632 C 293.756 30.735,294.370 30.396,295.015 29.879 C 296.395 28.772,295.857 28.605,294.434 29.698 M356.815 31.889 C 356.447 32.452,356.223 32.991,356.319 33.086 C 356.414 33.182,356.794 32.799,357.163 32.236 C 357.532 31.673,357.756 31.134,357.660 31.039 C 357.564 30.943,357.184 31.326,356.815 31.889 M287.787 34.391 C 287.252 34.801,286.901 35.221,287.005 35.324 C 287.109 35.427,287.722 35.088,288.368 34.571 C 289.748 33.464,289.210 33.297,287.787 34.391 M352.123 38.536 C 351.754 39.099,351.531 39.638,351.626 39.733 C 351.722 39.829,352.102 39.446,352.471 38.883 C 352.840 38.320,353.063 37.782,352.968 37.686 C 352.872 37.590,352.492 37.973,352.123 38.536 M281.140 39.083 C 280.605 39.493,280.253 39.913,280.358 40.016 C 280.462 40.119,281.075 39.780,281.720 39.263 C 283.101 38.156,282.563 37.989,281.140 39.083 M274.529 43.816 C 273.175 44.943,273.680 45.073,275.073 43.955 C 275.718 43.438,276.070 43.020,275.855 43.026 C 275.640 43.032,275.044 43.387,274.529 43.816 M347.431 45.183 C 347.062 45.746,346.839 46.285,346.934 46.380 C 347.030 46.476,347.410 46.094,347.779 45.531 C 348.148 44.968,348.371 44.429,348.276 44.333 C 348.180 44.238,347.800 44.620,347.431 45.183 M345.476 47.920 C 345.107 48.483,344.884 49.022,344.979 49.117 C 345.075 49.213,345.455 48.831,345.824 48.268 C 346.193 47.705,346.416 47.166,346.321 47.070 C 346.225 46.975,345.845 47.357,345.476 47.920 M267.882 48.508 C 266.528 49.635,267.032 49.765,268.426 48.647 C 269.071 48.130,269.423 47.712,269.208 47.718 C 268.993 47.724,268.396 48.079,267.882 48.508 M342.739 51.830 C 342.370 52.393,342.147 52.932,342.242 53.028 C 342.338 53.123,342.718 52.741,343.087 52.178 C 343.456 51.615,343.679 51.076,343.584 50.980 C 343.488 50.885,343.108 51.267,342.739 51.830 M261.235 53.200 C 259.881 54.327,260.385 54.457,261.779 53.339 C 262.424 52.822,262.776 52.404,262.561 52.410 C 262.346 52.416,261.749 52.771,261.235 53.200 M340.784 54.567 C 340.415 55.130,340.192 55.669,340.287 55.765 C 340.383 55.860,340.763 55.478,341.132 54.915 C 341.501 54.352,341.724 53.813,341.629 53.717 C 341.533 53.622,341.153 54.004,340.784 54.567 M254.588 57.892 C 253.234 59.019,253.738 59.149,255.132 58.031 C 255.777 57.514,256.129 57.096,255.914 57.102 C 255.699 57.108,255.102 57.463,254.588 57.892 M338.047 58.477 C 337.678 59.040,337.455 59.579,337.550 59.675 C 337.646 59.770,338.026 59.388,338.395 58.825 C 338.764 58.262,338.987 57.723,338.892 57.627 C 338.796 57.532,338.416 57.914,338.047 58.477 M251.808 59.824 C 251.271 60.245,251.007 60.589,251.222 60.589 C 251.437 60.589,252.053 60.245,252.590 59.824 C 253.128 59.404,253.392 59.059,253.177 59.059 C 252.962 59.059,252.346 59.404,251.808 59.824 M336.092 61.214 C 335.723 61.777,335.500 62.316,335.595 62.412 C 335.691 62.507,336.071 62.125,336.440 61.562 C 336.809 60.999,337.032 60.460,336.937 60.364 C 336.841 60.269,336.461 60.651,336.092 61.214 M247.941 62.584 C 246.587 63.712,247.091 63.841,248.485 62.723 C 249.130 62.206,249.482 61.788,249.267 61.794 C 249.052 61.800,248.455 62.156,247.941 62.584 M245.161 64.516 C 244.624 64.937,244.360 65.281,244.575 65.281 C 244.790 65.281,245.406 64.937,245.943 64.516 C 246.481 64.096,246.745 63.752,246.530 63.752 C 246.315 63.752,245.699 64.096,245.161 64.516 M333.386 65.077 C 332.472 66.472,332.596 66.768,333.573 65.526 C 334.028 64.948,334.316 64.391,334.213 64.288 C 334.110 64.185,333.738 64.540,333.386 65.077 M241.294 67.276 C 239.939 68.404,240.444 68.533,241.838 67.416 C 242.483 66.898,242.835 66.480,242.620 66.486 C 242.405 66.492,241.808 66.848,241.294 67.276 M331.400 67.861 C 331.031 68.424,330.808 68.963,330.903 69.059 C 330.999 69.154,331.379 68.772,331.748 68.209 C 332.116 67.646,332.340 67.107,332.245 67.012 C 332.149 66.916,331.769 67.298,331.400 67.861 M238.514 69.208 C 237.977 69.629,237.713 69.973,237.928 69.973 C 238.143 69.973,238.759 69.629,239.296 69.208 C 239.834 68.788,240.098 68.444,239.883 68.444 C 239.668 68.444,239.052 68.788,238.514 69.208 M328.694 71.724 C 327.780 73.119,327.904 73.416,328.881 72.173 C 329.336 71.595,329.624 71.038,329.521 70.935 C 329.418 70.832,329.046 71.187,328.694 71.724 M234.646 71.968 C 233.292 73.096,233.797 73.225,235.191 72.108 C 235.836 71.590,236.188 71.172,235.973 71.178 C 235.758 71.184,235.161 71.540,234.646 71.968 M231.867 73.900 C 231.329 74.321,231.065 74.665,231.281 74.665 C 231.496 74.665,232.111 74.321,232.649 73.900 C 233.187 73.480,233.451 73.136,233.236 73.136 C 233.021 73.136,232.405 73.480,231.867 73.900 M326.708 74.509 C 326.339 75.072,326.115 75.610,326.211 75.706 C 326.307 75.802,326.687 75.419,327.056 74.856 C 327.424 74.293,327.648 73.754,327.552 73.659 C 327.457 73.563,327.077 73.946,326.708 74.509 M228.651 76.163 C 227.850 76.746,227.190 77.365,227.185 77.537 C 227.177 77.800,229.162 76.505,230.479 75.388 C 231.423 74.588,229.964 75.207,228.651 76.163 M225.220 78.592 C 224.682 79.013,224.418 79.357,224.633 79.357 C 224.848 79.357,225.464 79.013,226.002 78.592 C 226.540 78.172,226.804 77.828,226.588 77.828 C 226.373 77.828,225.758 78.172,225.220 78.592 M222.004 80.855 C 221.203 81.439,220.543 82.057,220.538 82.229 C 220.529 82.492,222.514 81.197,223.832 80.080 C 224.776 79.280,223.317 79.899,222.004 80.855 M322.016 81.156 C 321.647 81.719,321.423 82.257,321.519 82.353 C 321.614 82.449,321.995 82.066,322.363 81.503 C 322.732 80.940,322.956 80.401,322.860 80.306 C 322.765 80.210,322.385 80.593,322.016 81.156 M218.573 83.284 C 218.035 83.705,217.771 84.049,217.986 84.049 C 218.201 84.049,218.817 83.705,219.355 83.284 C 219.892 82.864,220.156 82.520,219.941 82.520 C 219.726 82.520,219.110 82.864,218.573 83.284 M215.357 85.547 C 214.556 86.131,213.896 86.749,213.891 86.921 C 213.882 87.184,215.867 85.889,217.185 84.772 C 218.129 83.972,216.670 84.591,215.357 85.547 M317.324 87.803 C 316.955 88.366,316.731 88.905,316.827 89.000 C 316.922 89.096,317.302 88.713,317.671 88.150 C 318.040 87.587,318.264 87.048,318.168 86.953 C 318.073 86.857,317.693 87.240,317.324 87.803 M211.926 87.977 C 211.388 88.397,211.124 88.741,211.339 88.741 C 211.554 88.741,212.170 88.397,212.708 87.977 C 213.245 87.556,213.509 87.212,213.294 87.212 C 213.079 87.212,212.463 87.556,211.926 87.977 M208.710 90.239 C 207.909 90.823,207.249 91.441,207.244 91.613 C 207.235 91.876,209.220 90.581,210.538 89.464 C 211.481 88.665,210.023 89.283,208.710 90.239 M315.369 90.540 C 315.000 91.103,314.776 91.642,314.872 91.737 C 314.967 91.833,315.347 91.450,315.716 90.887 C 316.085 90.324,316.309 89.786,316.213 89.690 C 316.118 89.594,315.738 89.977,315.369 90.540 M205.279 92.669 C 204.741 93.089,204.477 93.433,204.692 93.433 C 204.907 93.433,205.523 93.089,206.061 92.669 C 206.598 92.248,206.862 91.904,206.647 91.904 C 206.432 91.904,205.816 92.248,205.279 92.669 M312.632 94.450 C 312.263 95.013,312.039 95.552,312.135 95.647 C 312.230 95.743,312.610 95.360,312.979 94.797 C 313.348 94.234,313.572 93.696,313.476 93.600 C 313.381 93.504,313.001 93.887,312.632 94.450 M202.063 94.931 C 201.262 95.515,200.602 96.133,200.597 96.305 C 200.588 96.568,202.573 95.273,203.891 94.156 C 204.834 93.357,203.376 93.975,202.063 94.931 M310.677 97.187 C 310.308 97.750,310.084 98.289,310.180 98.384 C 310.275 98.480,310.655 98.097,311.024 97.534 C 311.393 96.971,311.617 96.433,311.521 96.337 C 311.426 96.241,311.046 96.624,310.677 97.187 M198.631 97.361 C 198.094 97.781,197.830 98.125,198.045 98.125 C 198.260 98.125,198.876 97.781,199.413 97.361 C 199.951 96.940,200.215 96.596,200.000 96.596 C 199.785 96.596,199.169 96.940,198.631 97.361 M195.416 99.623 C 194.615 100.207,193.955 100.825,193.949 100.997 C 193.941 101.260,195.926 99.965,197.243 98.849 C 198.187 98.049,196.729 98.667,195.416 99.623 M307.940 101.097 C 307.571 101.660,307.347 102.199,307.443 102.294 C 307.538 102.390,307.918 102.008,308.287 101.445 C 308.656 100.882,308.880 100.343,308.784 100.247 C 308.689 100.152,308.309 100.534,307.940 101.097 M191.984 102.053 C 191.447 102.473,191.183 102.817,191.398 102.817 C 191.613 102.817,192.229 102.473,192.766 102.053 C 193.304 101.632,193.568 101.288,193.353 101.288 C 193.138 101.288,192.522 101.632,191.984 102.053 M305.985 103.834 C 305.616 104.397,305.392 104.936,305.488 105.031 C 305.583 105.127,305.963 104.745,306.332 104.182 C 306.701 103.619,306.925 103.080,306.829 102.984 C 306.733 102.889,306.353 103.271,305.985 103.834 M188.117 104.813 C 186.763 105.940,187.267 106.070,188.661 104.952 C 189.306 104.435,189.658 104.017,189.443 104.023 C 189.228 104.029,188.631 104.384,188.117 104.813 M185.337 106.745 C 184.800 107.165,184.536 107.509,184.751 107.509 C 184.966 107.509,185.582 107.165,186.119 106.745 C 186.657 106.324,186.921 105.980,186.706 105.980 C 186.491 105.980,185.875 106.324,185.337 106.745 M303.279 107.696 C 302.365 109.091,302.488 109.388,303.466 108.146 C 303.921 107.568,304.208 107.010,304.105 106.908 C 304.002 106.805,303.630 107.160,303.279 107.696 M181.470 109.505 C 180.115 110.632,180.620 110.762,182.014 109.644 C 182.659 109.127,183.011 108.709,182.796 108.715 C 182.581 108.721,181.984 109.076,181.470 109.505 M301.292 110.481 C 300.924 111.044,300.700 111.583,300.796 111.679 C 300.891 111.774,301.271 111.392,301.640 110.829 C 302.009 110.266,302.233 109.727,302.137 109.631 C 302.041 109.536,301.661 109.918,301.292 110.481 M178.690 111.437 C 178.152 111.857,177.889 112.202,178.104 112.202 C 178.319 112.202,178.935 111.857,179.472 111.437 C 180.010 111.016,180.274 110.672,180.059 110.672 C 179.844 110.672,179.228 111.016,178.690 111.437 M174.822 114.197 C 173.468 115.324,173.973 115.454,175.367 114.336 C 176.012 113.819,176.364 113.401,176.149 113.407 C 175.934 113.413,175.337 113.768,174.822 114.197 M298.587 114.344 C 297.673 115.738,297.796 116.035,298.774 114.793 C 299.228 114.215,299.516 113.658,299.413 113.555 C 299.310 113.452,298.938 113.807,298.587 114.344 M172.043 116.129 C 171.505 116.550,171.241 116.894,171.457 116.894 C 171.672 116.894,172.287 116.550,172.825 116.129 C 173.363 115.708,173.627 115.364,173.412 115.364 C 173.196 115.364,172.581 115.708,172.043 116.129 M296.600 117.128 C 296.232 117.691,296.008 118.230,296.103 118.326 C 296.199 118.421,296.579 118.039,296.948 117.476 C 297.317 116.913,297.540 116.374,297.445 116.278 C 297.349 116.183,296.969 116.565,296.600 117.128 M168.175 118.889 C 166.821 120.017,167.326 120.146,168.719 119.028 C 169.365 118.511,169.717 118.093,169.501 118.099 C 169.286 118.105,168.690 118.461,168.175 118.889 M165.402 120.803 C 164.867 121.214,164.515 121.634,164.620 121.737 C 164.724 121.840,165.337 121.501,165.982 120.984 C 167.363 119.877,166.825 119.709,165.402 120.803 M161.528 123.581 C 160.174 124.709,160.679 124.838,162.072 123.721 C 162.717 123.203,163.069 122.785,162.854 122.791 C 162.639 122.797,162.043 123.153,161.528 123.581 M291.908 123.775 C 291.539 124.338,291.316 124.877,291.411 124.973 C 291.507 125.068,291.887 124.686,292.256 124.123 C 292.625 123.560,292.848 123.021,292.753 122.926 C 292.657 122.830,292.277 123.212,291.908 123.775 M158.755 125.495 C 158.220 125.906,157.868 126.326,157.973 126.429 C 158.077 126.532,158.690 126.193,159.335 125.676 C 160.716 124.569,160.178 124.401,158.755 125.495 M154.881 128.273 C 153.527 129.401,154.031 129.530,155.425 128.413 C 156.070 127.895,156.422 127.477,156.207 127.483 C 155.992 127.489,155.395 127.845,154.881 128.273 M152.108 130.187 C 151.573 130.598,151.221 131.018,151.325 131.121 C 151.430 131.224,152.043 130.885,152.688 130.368 C 154.069 129.261,153.531 129.094,152.108 130.187 M287.216 130.423 C 286.847 130.986,286.624 131.524,286.719 131.620 C 286.815 131.716,287.195 131.333,287.564 130.770 C 287.933 130.207,288.156 129.668,288.061 129.573 C 287.965 129.477,287.585 129.859,287.216 130.423 M148.234 132.965 C 146.880 134.093,147.384 134.222,148.778 133.105 C 149.423 132.587,149.775 132.169,149.560 132.175 C 149.345 132.181,148.748 132.537,148.234 132.965 M285.261 133.160 C 284.892 133.723,284.669 134.261,284.764 134.357 C 284.860 134.453,285.240 134.070,285.609 133.507 C 285.978 132.944,286.201 132.405,286.106 132.310 C 286.010 132.214,285.630 132.597,285.261 133.160 M145.460 134.879 C 144.926 135.290,144.574 135.710,144.678 135.813 C 144.783 135.916,145.396 135.577,146.041 135.060 C 147.422 133.953,146.884 133.786,145.460 134.879 M282.524 137.070 C 282.155 137.633,281.932 138.171,282.027 138.267 C 282.123 138.363,282.503 137.980,282.872 137.417 C 283.241 136.854,283.464 136.315,283.369 136.220 C 283.273 136.124,282.893 136.507,282.524 137.070 M138.813 139.571 C 138.279 139.982,137.927 140.402,138.031 140.505 C 138.136 140.608,138.749 140.269,139.394 139.752 C 140.775 138.645,140.237 138.478,138.813 139.571 M280.569 139.807 C 280.200 140.370,279.977 140.909,280.072 141.004 C 280.168 141.100,280.548 140.717,280.917 140.154 C 281.286 139.591,281.509 139.052,281.414 138.957 C 281.318 138.861,280.938 139.244,280.569 139.807 M277.832 143.717 C 277.463 144.280,277.240 144.819,277.335 144.914 C 277.431 145.010,277.811 144.627,278.180 144.064 C 278.549 143.501,278.772 142.962,278.677 142.867 C 278.581 142.771,278.201 143.154,277.832 143.717 M132.166 144.263 C 131.632 144.674,131.280 145.094,131.384 145.197 C 131.488 145.300,132.102 144.961,132.747 144.444 C 134.127 143.337,133.590 143.170,132.166 144.263 M275.877 146.454 C 275.508 147.017,275.285 147.556,275.380 147.651 C 275.476 147.747,275.856 147.364,276.225 146.801 C 276.594 146.238,276.817 145.700,276.722 145.604 C 276.626 145.508,276.246 145.891,275.877 146.454 M125.519 148.956 C 124.985 149.366,124.633 149.786,124.737 149.889 C 124.841 149.992,125.455 149.653,126.100 149.136 C 127.480 148.029,126.943 147.862,125.519 148.956 M273.140 150.364 C 272.771 150.927,272.547 151.466,272.643 151.561 C 272.739 151.657,273.119 151.274,273.488 150.711 C 273.856 150.148,274.080 149.610,273.985 149.514 C 273.889 149.418,273.509 149.801,273.140 150.364 M271.185 153.101 C 270.816 153.664,270.592 154.203,270.688 154.298 C 270.784 154.394,271.164 154.011,271.533 153.448 C 271.901 152.885,272.125 152.347,272.029 152.251 C 271.934 152.155,271.554 152.538,271.185 153.101 M118.872 153.648 C 118.338 154.058,117.986 154.478,118.090 154.581 C 118.194 154.684,118.807 154.345,119.453 153.828 C 120.833 152.721,120.295 152.554,118.872 153.648 M268.479 156.963 C 267.565 158.358,267.689 158.655,268.666 157.412 C 269.121 156.834,269.409 156.277,269.306 156.174 C 269.203 156.072,268.831 156.427,268.479 156.963 M112.225 158.340 C 111.690 158.750,111.338 159.171,111.443 159.273 C 111.547 159.376,112.160 159.037,112.805 158.520 C 114.186 157.413,113.648 157.246,112.225 158.340 M266.493 159.748 C 266.124 160.311,265.900 160.850,265.996 160.945 C 266.092 161.041,266.472 160.659,266.840 160.096 C 267.209 159.533,267.433 158.994,267.337 158.898 C 267.242 158.803,266.862 159.185,266.493 159.748 M108.467 161.152 C 107.728 161.985,107.728 161.987,108.580 161.541 C 109.531 161.042,110.116 160.313,109.566 160.313 C 109.371 160.313,108.877 160.690,108.467 161.152 M261.440 166.952 C 260.868 167.817,260.534 168.522,260.698 168.519 C 261.075 168.513,262.871 165.771,262.646 165.546 C 262.555 165.455,262.012 166.087,261.440 166.952 M102.881 169.352 C 101.811 172.518,102.071 172.778,103.203 169.674 C 103.682 168.361,103.990 167.203,103.888 167.101 C 103.787 166.999,103.333 168.012,102.881 169.352 M259.279 171.321 C 258.832 172.644,258.577 173.616,258.713 173.480 C 259.197 172.996,260.708 168.915,260.403 168.915 C 260.232 168.915,259.726 169.998,259.279 171.321 M101.912 173.298 C 101.780 173.791,101.689 174.633,101.710 175.171 C 101.732 175.747,101.887 175.436,102.088 174.414 C 102.447 172.582,102.320 171.776,101.912 173.298 M258.118 177.440 C 258.060 179.694,259.107 184.946,259.614 184.946 C 259.787 184.946,259.670 184.198,259.355 183.284 C 259.039 182.370,258.644 180.215,258.476 178.495 C 258.210 175.766,258.164 175.631,258.118 177.440 M101.728 176.931 C 101.722 177.361,101.868 178.065,102.053 178.495 C 102.481 179.491,102.481 178.463,102.053 177.126 C 101.801 176.340,101.737 176.302,101.728 176.931 M102.350 180.852 C 102.452 181.384,102.674 181.818,102.844 181.818 C 103.206 181.818,102.873 180.324,102.453 180.064 C 102.295 179.967,102.249 180.321,102.350 180.852 M104.792 185.946 C 104.794 186.342,106.707 188.807,106.731 188.444 C 106.739 188.324,106.305 187.630,105.767 186.901 C 105.230 186.173,104.791 185.742,104.792 185.946 M261.584 188.856 C 262.043 189.501,262.505 190.029,262.610 190.029 C 262.715 190.029,262.489 189.501,262.108 188.856 C 261.727 188.211,261.265 187.683,261.082 187.683 C 260.898 187.683,261.124 188.211,261.584 188.856 M296.191 223.656 C 314.469 242.043,329.504 257.036,329.602 256.973 C 329.701 256.910,314.746 241.866,296.370 223.542 L 262.959 190.225 296.191 223.656 M172.548 254.545 C 172.919 255.083,173.766 256.447,174.430 257.576 C 175.093 258.705,175.718 259.629,175.818 259.629 C 176.207 259.629,173.474 254.940,172.698 254.274 C 171.874 253.568,171.874 253.568,172.548 254.545 M331.134 260.202 C 331.484 260.948,331.898 261.564,332.056 261.571 C 332.214 261.578,332.049 260.968,331.691 260.215 C 331.332 259.462,330.917 258.847,330.769 258.847 C 330.621 258.847,330.785 259.457,331.134 260.202 M176.834 266.471 C 176.838 267.331,176.918 267.637,177.012 267.151 C 177.105 266.664,177.102 265.961,177.004 265.587 C 176.906 265.213,176.829 265.611,176.834 266.471 M175.442 273.584 C 175.073 274.578,174.836 275.456,174.915 275.534 C 174.994 275.613,175.366 274.871,175.743 273.885 C 176.119 272.900,176.356 272.022,176.269 271.935 C 176.182 271.849,175.810 272.591,175.442 273.584 M331.791 275.719 C 331.427 276.629,330.777 277.868,330.347 278.472 C 329.917 279.076,329.744 279.570,329.963 279.570 C 330.401 279.570,332.926 274.536,332.635 274.244 C 332.535 274.145,332.156 274.808,331.791 275.719 M173.674 276.871 C 172.933 278.058,173.379 278.217,174.150 277.041 C 174.506 276.496,174.660 276.051,174.492 276.051 C 174.324 276.051,173.956 276.420,173.674 276.871 M171.087 280.569 C 170.718 281.132,170.495 281.671,170.590 281.767 C 170.686 281.862,171.066 281.480,171.435 280.917 C 171.804 280.354,172.027 279.815,171.932 279.719 C 171.836 279.624,171.456 280.006,171.087 280.569 M326.969 282.343 C 325.619 283.613,324.667 284.653,324.853 284.653 C 325.343 284.653,329.851 280.473,329.619 280.234 C 329.511 280.123,328.319 281.072,326.969 282.343 M322.776 285.664 C 322.131 286.181,321.779 286.601,321.994 286.597 C 322.533 286.588,324.373 285.141,324.139 284.910 C 324.035 284.807,323.421 285.146,322.776 285.664 M166.395 287.216 C 166.026 287.779,165.803 288.318,165.898 288.414 C 165.994 288.509,166.374 288.127,166.743 287.564 C 167.112 287.001,167.335 286.462,167.240 286.366 C 167.144 286.271,166.764 286.653,166.395 287.216 M319.556 287.911 C 318.644 288.562,317.980 289.176,318.079 289.274 C 318.220 289.416,319.663 288.476,321.375 287.127 C 322.363 286.349,320.798 287.023,319.556 287.911 M316.129 290.356 C 315.484 290.873,315.132 291.293,315.347 291.289 C 315.886 291.280,317.726 289.833,317.492 289.602 C 317.387 289.499,316.774 289.838,316.129 290.356 M312.908 292.603 C 311.997 293.254,311.333 293.868,311.432 293.967 C 311.573 294.108,313.016 293.168,314.728 291.819 C 315.716 291.041,314.151 291.715,312.908 292.603 M161.703 293.863 C 161.334 294.426,161.111 294.965,161.206 295.061 C 161.302 295.156,161.682 294.774,162.051 294.211 C 162.420 293.648,162.643 293.109,162.548 293.014 C 162.452 292.918,162.072 293.300,161.703 293.863 M309.482 295.048 C 308.837 295.565,308.485 295.985,308.700 295.982 C 309.239 295.972,311.079 294.525,310.845 294.294 C 310.740 294.191,310.127 294.530,309.482 295.048 M159.748 296.600 C 159.379 297.163,159.156 297.702,159.251 297.798 C 159.347 297.893,159.727 297.511,160.096 296.948 C 160.464 296.385,160.688 295.846,160.593 295.751 C 160.497 295.655,160.117 296.037,159.748 296.600 M306.261 297.295 C 305.350 297.946,304.686 298.560,304.784 298.659 C 304.926 298.800,306.369 297.861,308.081 296.512 C 309.069 295.733,307.504 296.407,306.261 297.295 M302.835 299.740 C 302.190 300.257,301.838 300.677,302.053 300.674 C 302.592 300.664,304.431 299.217,304.197 298.987 C 304.093 298.884,303.480 299.223,302.835 299.740 M157.011 300.510 C 156.642 301.073,156.418 301.612,156.514 301.708 C 156.610 301.803,156.990 301.421,157.359 300.858 C 157.727 300.295,157.951 299.756,157.855 299.661 C 157.760 299.565,157.380 299.947,157.011 300.510 M299.614 301.987 C 298.703 302.638,298.039 303.252,298.137 303.351 C 298.279 303.492,299.722 302.553,301.434 301.204 C 302.422 300.425,300.857 301.099,299.614 301.987 M155.056 303.248 C 154.687 303.811,154.463 304.349,154.559 304.445 C 154.655 304.541,155.035 304.158,155.403 303.595 C 155.772 303.032,155.996 302.493,155.900 302.398 C 155.805 302.302,155.425 302.685,155.056 303.248 M296.188 304.432 C 295.543 304.949,295.191 305.369,295.406 305.366 C 295.945 305.356,297.784 303.910,297.550 303.679 C 297.446 303.576,296.833 303.915,296.188 304.432 M292.967 306.679 C 292.056 307.330,291.391 307.944,291.490 308.043 C 291.632 308.184,293.075 307.245,294.787 305.896 C 295.775 305.117,294.209 305.791,292.967 306.679 M152.319 307.158 C 151.950 307.721,151.726 308.259,151.822 308.355 C 151.918 308.451,152.298 308.068,152.666 307.505 C 153.035 306.942,153.259 306.403,153.163 306.308 C 153.068 306.212,152.688 306.595,152.319 307.158 M289.345 309.286 C 288.807 309.707,288.543 310.051,288.759 310.051 C 288.974 310.051,289.589 309.707,290.127 309.286 C 290.665 308.866,290.929 308.522,290.714 308.522 C 290.499 308.522,289.883 308.866,289.345 309.286 M150.364 309.895 C 149.995 310.458,149.771 310.996,149.867 311.092 C 149.962 311.188,150.343 310.805,150.711 310.242 C 151.080 309.679,151.304 309.140,151.208 309.045 C 151.113 308.949,150.733 309.332,150.364 309.895 M286.320 311.371 C 285.409 312.022,284.744 312.636,284.843 312.735 C 284.985 312.877,286.427 311.937,288.139 310.588 C 289.128 309.809,287.562 310.483,286.320 311.371 M147.627 313.805 C 147.258 314.368,147.034 314.907,147.130 315.002 C 147.225 315.098,147.605 314.715,147.974 314.152 C 148.343 313.589,148.567 313.050,148.471 312.955 C 148.376 312.859,147.996 313.242,147.627 313.805 M282.698 313.978 C 282.160 314.399,281.896 314.743,282.111 314.743 C 282.326 314.743,282.942 314.399,283.480 313.978 C 284.018 313.558,284.282 313.214,284.066 313.214 C 283.851 313.214,283.236 313.558,282.698 313.978 M279.673 316.063 C 278.762 316.714,278.097 317.328,278.196 317.427 C 278.338 317.569,279.780 316.629,281.492 315.280 C 282.481 314.501,280.915 315.175,279.673 316.063 M145.672 316.542 C 145.303 317.105,145.079 317.644,145.175 317.739 C 145.270 317.835,145.650 317.452,146.019 316.889 C 146.388 316.326,146.612 315.787,146.516 315.692 C 146.421 315.596,146.041 315.979,145.672 316.542 M276.051 318.671 C 275.513 319.091,275.249 319.435,275.464 319.435 C 275.679 319.435,276.295 319.091,276.833 318.671 C 277.370 318.250,277.634 317.906,277.419 317.906 C 277.204 317.906,276.588 318.250,276.051 318.671 M273.026 320.755 C 272.115 321.407,271.450 322.020,271.549 322.119 C 271.690 322.261,273.133 321.321,274.845 319.972 C 275.834 319.193,274.268 319.867,273.026 320.755 M140.980 323.189 C 140.611 323.752,140.387 324.291,140.483 324.386 C 140.578 324.482,140.958 324.099,141.327 323.536 C 141.696 322.973,141.920 322.435,141.824 322.339 C 141.729 322.243,141.349 322.626,140.980 323.189 M269.404 323.363 C 268.866 323.783,268.602 324.127,268.817 324.127 C 269.032 324.127,269.648 323.783,270.186 323.363 C 270.723 322.942,270.987 322.598,270.772 322.598 C 270.557 322.598,269.941 322.942,269.404 323.363 M266.379 325.447 C 265.468 326.099,264.803 326.712,264.902 326.811 C 265.043 326.953,266.486 326.013,268.198 324.664 C 269.186 323.885,267.621 324.559,266.379 325.447 M262.757 328.055 C 262.219 328.475,261.955 328.819,262.170 328.819 C 262.385 328.819,263.001 328.475,263.539 328.055 C 264.076 327.634,264.340 327.290,264.125 327.290 C 263.910 327.290,263.294 327.634,262.757 328.055 M136.288 329.836 C 135.919 330.399,135.695 330.938,135.791 331.033 C 135.886 331.129,136.266 330.747,136.635 330.184 C 137.004 329.621,137.228 329.082,137.132 328.986 C 137.037 328.891,136.657 329.273,136.288 329.836 M259.732 330.139 C 258.820 330.791,258.156 331.404,258.255 331.503 C 258.396 331.645,259.839 330.705,261.551 329.356 C 262.539 328.577,260.974 329.251,259.732 330.139 M256.109 332.747 C 255.572 333.167,255.308 333.511,255.523 333.511 C 255.738 333.511,256.354 333.167,256.891 332.747 C 257.429 332.326,257.693 331.982,257.478 331.982 C 257.263 331.982,256.647 332.326,256.109 332.747 M253.084 334.832 C 252.173 335.483,251.509 336.097,251.607 336.195 C 251.749 336.337,253.192 335.397,254.904 334.048 C 255.892 333.270,254.327 333.943,253.084 334.832 M131.596 336.483 C 131.227 337.046,131.003 337.585,131.099 337.681 C 131.194 337.776,131.574 337.394,131.943 336.831 C 132.312 336.268,132.536 335.729,132.440 335.633 C 132.344 335.538,131.964 335.920,131.596 336.483 M249.462 337.439 C 248.925 337.859,248.661 338.204,248.876 338.204 C 249.091 338.204,249.707 337.859,250.244 337.439 C 250.782 337.018,251.046 336.674,250.831 336.674 C 250.616 336.674,250.000 337.018,249.462 337.439 M129.678 339.263 C 129.281 339.795,129.037 340.311,129.136 340.410 C 129.236 340.510,129.619 340.131,129.988 339.568 C 130.857 338.241,130.618 338.007,129.678 339.263 M247.159 339.046 C 246.644 339.463,246.292 339.873,246.377 339.957 C 246.461 340.040,246.951 339.767,247.465 339.351 C 247.979 338.934,248.331 338.524,248.247 338.440 C 248.163 338.357,247.673 338.629,247.159 339.046 M242.815 342.131 C 242.278 342.552,242.014 342.896,242.229 342.896 C 242.444 342.896,243.060 342.552,243.597 342.131 C 244.135 341.710,244.399 341.366,244.184 341.366 C 243.969 341.366,243.353 341.710,242.815 342.131 M126.903 343.130 C 126.535 343.693,126.311 344.232,126.407 344.328 C 126.502 344.423,126.882 344.041,127.251 343.478 C 127.620 342.915,127.844 342.376,127.748 342.280 C 127.652 342.185,127.272 342.567,126.903 343.130 M240.512 343.738 C 239.997 344.155,239.645 344.565,239.730 344.649 C 239.814 344.732,240.304 344.460,240.818 344.043 C 241.332 343.626,241.684 343.216,241.600 343.132 C 241.516 343.049,241.026 343.321,240.512 343.738 M124.948 345.867 C 124.580 346.430,124.356 346.969,124.451 347.065 C 124.547 347.160,124.927 346.778,125.296 346.215 C 125.665 345.652,125.888 345.113,125.793 345.017 C 125.697 344.922,125.317 345.304,124.948 345.867 M236.168 346.823 C 235.630 347.244,235.367 347.588,235.582 347.588 C 235.797 347.588,236.413 347.244,236.950 346.823 C 237.488 346.403,237.752 346.058,237.537 346.058 C 237.322 346.058,236.706 346.403,236.168 346.823 M233.864 348.431 C 233.350 348.848,232.998 349.257,233.082 349.341 C 233.167 349.424,233.656 349.152,234.171 348.735 C 234.685 348.318,235.037 347.908,234.953 347.824 C 234.869 347.741,234.379 348.014,233.864 348.431 M122.211 349.777 C 121.842 350.340,121.619 350.879,121.714 350.975 C 121.810 351.070,122.190 350.688,122.559 350.125 C 122.928 349.562,123.151 349.023,123.056 348.927 C 122.960 348.832,122.580 349.214,122.211 349.777 M229.521 351.515 C 228.983 351.936,228.719 352.280,228.935 352.280 C 229.150 352.280,229.765 351.936,230.303 351.515 C 230.841 351.095,231.105 350.751,230.890 350.751 C 230.674 350.751,230.059 351.095,229.521 351.515 M120.256 352.514 C 119.887 353.077,119.664 353.616,119.759 353.712 C 119.855 353.807,120.235 353.425,120.604 352.862 C 120.973 352.299,121.196 351.760,121.101 351.665 C 121.005 351.569,120.625 351.951,120.256 352.514 M227.217 353.123 C 226.703 353.540,226.351 353.949,226.435 354.033 C 226.520 354.116,227.009 353.844,227.524 353.427 C 228.038 353.010,228.390 352.600,228.306 352.517 C 228.221 352.433,227.732 352.706,227.217 353.123 M117.519 356.424 C 117.150 356.987,116.927 357.526,117.022 357.622 C 117.118 357.717,117.498 357.335,117.867 356.772 C 118.236 356.209,118.459 355.670,118.364 355.575 C 118.268 355.479,117.888 355.861,117.519 356.424 M222.874 356.207 C 222.336 356.628,222.072 356.972,222.287 356.972 C 222.502 356.972,223.118 356.628,223.656 356.207 C 224.194 355.787,224.457 355.443,224.242 355.443 C 224.027 355.443,223.412 355.787,222.874 356.207 M220.570 357.815 C 220.056 358.232,219.704 358.641,219.788 358.725 C 219.872 358.809,220.362 358.536,220.877 358.119 C 221.391 357.702,221.743 357.292,221.659 357.209 C 221.574 357.125,221.085 357.398,220.570 357.815 M115.564 359.162 C 115.195 359.725,114.972 360.263,115.067 360.359 C 115.163 360.455,115.543 360.072,115.912 359.509 C 116.281 358.946,116.504 358.407,116.409 358.312 C 116.313 358.216,115.933 358.599,115.564 359.162 M216.227 360.899 C 215.689 361.320,215.425 361.664,215.640 361.664 C 215.855 361.664,216.471 361.320,217.009 360.899 C 217.546 360.479,217.810 360.135,217.595 360.135 C 217.380 360.135,216.764 360.479,216.227 360.899 M213.923 362.507 C 213.409 362.924,213.057 363.333,213.141 363.417 C 213.225 363.501,213.715 363.228,214.229 362.811 C 214.744 362.394,215.096 361.984,215.011 361.901 C 214.927 361.817,214.437 362.090,213.923 362.507 M110.872 365.809 C 110.503 366.372,110.280 366.910,110.375 367.006 C 110.471 367.102,110.851 366.719,111.220 366.156 C 111.589 365.593,111.812 365.054,111.717 364.959 C 111.621 364.863,111.241 365.246,110.872 365.809 M209.580 365.591 C 209.042 366.012,208.778 366.356,208.993 366.356 C 209.208 366.356,209.824 366.012,210.362 365.591 C 210.899 365.171,211.163 364.827,210.948 364.827 C 210.733 364.827,210.117 365.171,209.580 365.591 M207.038 367.384 C 206.393 367.901,206.041 368.320,206.256 368.313 C 206.739 368.300,208.575 366.802,208.364 366.594 C 208.280 366.511,207.683 366.867,207.038 367.384 M202.933 370.283 C 202.395 370.704,202.131 371.048,202.346 371.048 C 202.561 371.048,203.177 370.704,203.715 370.283 C 204.252 369.863,204.516 369.519,204.301 369.519 C 204.086 369.519,203.470 369.863,202.933 370.283 M200.391 372.076 C 199.746 372.593,199.394 373.012,199.609 373.006 C 200.092 372.992,201.928 371.494,201.717 371.286 C 201.633 371.203,201.036 371.559,200.391 372.076 M106.180 372.456 C 105.811 373.019,105.588 373.558,105.683 373.653 C 105.779 373.749,106.159 373.366,106.528 372.803 C 106.897 372.240,107.120 371.701,107.025 371.606 C 106.929 371.510,106.549 371.893,106.180 372.456 M196.285 374.976 C 195.748 375.396,195.484 375.740,195.699 375.740 C 195.914 375.740,196.530 375.396,197.067 374.976 C 197.605 374.555,197.869 374.211,197.654 374.211 C 197.439 374.211,196.823 374.555,196.285 374.976 M193.744 376.768 C 193.099 377.285,192.747 377.704,192.962 377.698 C 193.445 377.684,195.281 376.186,195.070 375.978 C 194.986 375.895,194.389 376.251,193.744 376.768 M101.488 379.103 C 101.119 379.666,100.895 380.205,100.991 380.300 C 101.087 380.396,101.467 380.013,101.836 379.450 C 102.204 378.887,102.428 378.349,102.332 378.253 C 102.237 378.157,101.857 378.540,101.488 379.103 M189.638 379.668 C 189.101 380.088,188.837 380.432,189.052 380.432 C 189.267 380.432,189.883 380.088,190.420 379.668 C 190.958 379.247,191.222 378.903,191.007 378.903 C 190.792 378.903,190.176 379.247,189.638 379.668 M187.097 381.460 C 186.452 381.978,186.100 382.396,186.315 382.390 C 186.798 382.376,188.634 380.878,188.423 380.670 C 188.339 380.588,187.742 380.943,187.097 381.460 M99.571 381.883 C 99.173 382.414,98.929 382.931,99.029 383.030 C 99.128 383.130,99.512 382.750,99.881 382.187 C 100.750 380.861,100.511 380.627,99.571 381.883 M182.991 384.360 C 182.454 384.780,182.190 385.124,182.405 385.124 C 182.620 385.124,183.236 384.780,183.773 384.360 C 184.311 383.939,184.575 383.595,184.360 383.595 C 184.145 383.595,183.529 383.939,182.991 384.360 M96.796 385.750 C 96.427 386.313,96.203 386.852,96.299 386.947 C 96.395 387.043,96.775 386.661,97.143 386.098 C 97.512 385.535,97.736 384.996,97.640 384.900 C 97.545 384.805,97.165 385.187,96.796 385.750 M180.450 386.152 C 179.804 386.670,179.453 387.090,179.668 387.086 C 180.207 387.077,182.046 385.630,181.812 385.399 C 181.708 385.296,181.095 385.635,180.450 386.152 M94.841 388.487 C 94.472 389.050,94.248 389.589,94.344 389.684 C 94.440 389.780,94.820 389.398,95.188 388.835 C 95.557 388.272,95.781 387.733,95.685 387.637 C 95.590 387.542,95.210 387.924,94.841 388.487 M176.344 389.052 C 175.806 389.472,175.543 389.816,175.758 389.816 C 175.973 389.816,176.588 389.472,177.126 389.052 C 177.664 388.631,177.928 388.287,177.713 388.287 C 177.498 388.287,176.882 388.631,176.344 389.052 M173.803 390.844 C 173.157 391.362,172.805 391.782,173.021 391.778 C 173.560 391.769,175.399 390.322,175.165 390.091 C 175.061 389.988,174.448 390.327,173.803 390.844 M92.104 392.397 C 91.735 392.960,91.511 393.499,91.607 393.595 C 91.702 393.690,92.083 393.308,92.451 392.745 C 92.820 392.182,93.044 391.643,92.948 391.547 C 92.853 391.452,92.473 391.834,92.104 392.397 M169.697 393.744 C 169.159 394.164,168.895 394.509,169.110 394.509 C 169.326 394.509,169.941 394.164,170.479 393.744 C 171.017 393.323,171.281 392.979,171.065 392.979 C 170.850 392.979,170.235 393.323,169.697 393.744 M90.149 395.134 C 89.780 395.697,89.556 396.236,89.652 396.332 C 89.747 396.427,90.127 396.045,90.496 395.482 C 90.865 394.919,91.089 394.380,90.993 394.284 C 90.898 394.189,90.518 394.571,90.149 395.134 M167.155 395.537 C 166.510 396.054,166.158 396.474,166.373 396.470 C 166.913 396.461,168.752 395.014,168.518 394.783 C 168.414 394.680,167.801 395.019,167.155 395.537 M163.050 398.436 C 162.512 398.857,162.248 399.201,162.463 399.201 C 162.678 399.201,163.294 398.857,163.832 398.436 C 164.370 398.015,164.633 397.671,164.418 397.671 C 164.203 397.671,163.587 398.015,163.050 398.436 M87.412 399.044 C 87.043 399.607,86.819 400.146,86.915 400.242 C 87.010 400.337,87.390 399.955,87.759 399.392 C 88.128 398.829,88.352 398.290,88.256 398.194 C 88.161 398.099,87.781 398.481,87.412 399.044 M160.508 400.229 C 159.863 400.746,159.511 401.166,159.726 401.162 C 160.266 401.153,162.105 399.706,161.871 399.475 C 161.767 399.372,161.153 399.711,160.508 400.229 M85.457 401.781 C 85.088 402.344,84.864 402.883,84.960 402.979 C 85.055 403.074,85.435 402.692,85.804 402.129 C 86.173 401.566,86.397 401.027,86.301 400.931 C 86.206 400.836,85.826 401.218,85.457 401.781 M156.403 403.128 C 155.865 403.549,155.601 403.893,155.816 403.893 C 156.031 403.893,156.647 403.549,157.185 403.128 C 157.722 402.708,157.986 402.363,157.771 402.363 C 157.556 402.363,156.940 402.708,156.403 403.128 M153.861 404.921 C 153.216 405.438,152.864 405.858,153.079 405.854 C 153.619 405.845,155.458 404.398,155.224 404.167 C 155.120 404.064,154.506 404.403,153.861 404.921 M82.720 405.691 C 82.351 406.254,82.127 406.793,82.223 406.889 C 82.318 406.984,82.698 406.602,83.067 406.039 C 83.436 405.476,83.660 404.937,83.564 404.841 C 83.469 404.746,83.089 405.128,82.720 405.691 M149.756 407.820 C 149.218 408.241,148.954 408.585,149.169 408.585 C 149.384 408.585,150.000 408.241,150.538 407.820 C 151.075 407.400,151.339 407.056,151.124 407.056 C 150.909 407.056,150.293 407.400,149.756 407.820 M80.765 408.428 C 80.396 408.991,80.172 409.530,80.268 409.626 C 80.363 409.721,80.743 409.339,81.112 408.776 C 81.481 408.213,81.705 407.674,81.609 407.579 C 81.514 407.483,81.134 407.865,80.765 408.428 M147.214 409.613 C 146.569 410.130,146.217 410.550,146.432 410.547 C 146.971 410.537,148.811 409.090,148.577 408.859 C 148.472 408.756,147.859 409.095,147.214 409.613 M143.109 412.512 C 142.571 412.933,142.307 413.277,142.522 413.277 C 142.737 413.277,143.353 412.933,143.891 412.512 C 144.428 412.092,144.692 411.748,144.477 411.748 C 144.262 411.748,143.646 412.092,143.109 412.512 M140.567 414.305 C 139.922 414.822,139.570 415.242,139.785 415.239 C 140.324 415.229,142.164 413.782,141.930 413.552 C 141.825 413.449,141.212 413.788,140.567 414.305 M75.293 416.720 C 74.220 418.949,73.488 421.174,73.912 420.912 C 74.121 420.783,74.293 420.468,74.295 420.212 C 74.297 419.955,74.741 418.797,75.281 417.636 C 75.821 416.476,76.203 415.466,76.129 415.393 C 76.056 415.319,75.679 415.917,75.293 416.720 M137.346 416.552 C 136.435 417.203,135.771 417.817,135.869 417.916 C 136.011 418.057,137.454 417.118,139.166 415.769 C 140.154 414.990,138.589 415.664,137.346 416.552 M133.920 418.997 C 133.275 419.514,132.923 419.934,133.138 419.931 C 133.677 419.921,135.516 418.475,135.283 418.244 C 135.178 418.141,134.565 418.480,133.920 418.997 M130.699 421.244 C 129.788 421.895,129.124 422.509,129.222 422.608 C 129.364 422.749,130.807 421.810,132.519 420.461 C 133.507 419.682,131.942 420.356,130.699 421.244 M73.369 422.370 C 73.237 422.862,73.144 423.617,73.163 424.047 C 73.182 424.477,73.358 424.143,73.555 423.304 C 73.936 421.679,73.773 420.861,73.369 422.370 M127.273 423.689 C 126.628 424.206,126.276 424.627,126.491 424.623 C 127.030 424.613,128.869 423.167,128.635 422.936 C 128.531 422.833,127.918 423.172,127.273 423.689 M124.052 425.936 C 123.141 426.587,122.476 427.201,122.575 427.300 C 122.717 427.442,124.160 426.502,125.872 425.153 C 126.860 424.374,125.294 425.048,124.052 425.936 M73.146 426.426 C 73.161 427.053,73.329 427.918,73.520 428.348 C 73.751 428.870,73.788 428.545,73.633 427.370 C 73.359 425.298,73.107 424.809,73.146 426.426 M120.626 428.381 C 119.980 428.898,119.629 429.319,119.844 429.315 C 120.383 429.306,122.222 427.859,121.988 427.628 C 121.884 427.525,121.271 427.864,120.626 428.381 M117.405 430.628 C 116.494 431.279,115.829 431.893,115.928 431.992 C 116.070 432.134,117.512 431.194,119.225 429.845 C 120.213 429.066,118.647 429.740,117.405 430.628 M75.152 433.423 C 75.620 434.386,76.070 435.106,76.152 435.024 C 76.329 434.848,74.749 431.672,74.484 431.672 C 74.384 431.672,74.684 432.459,75.152 433.423 M113.783 433.236 C 113.245 433.656,112.981 434.000,113.196 434.000 C 113.412 434.000,114.027 433.656,114.565 433.236 C 115.103 432.815,115.367 432.471,115.152 432.471 C 114.936 432.471,114.321 432.815,113.783 433.236 M110.758 435.320 C 109.847 435.972,109.182 436.585,109.281 436.684 C 109.423 436.826,110.865 435.886,112.577 434.537 C 113.566 433.758,112.000 434.432,110.758 435.320 M76.637 435.930 C 76.637 436.501,81.201 441.056,81.773 441.056 C 82.017 441.056,81.770 440.704,81.223 440.274 C 80.677 439.844,79.421 438.594,78.433 437.495 C 77.446 436.396,76.637 435.692,76.637 435.930 M107.136 437.928 C 106.598 438.348,106.334 438.692,106.549 438.692 C 106.764 438.692,107.380 438.348,107.918 437.928 C 108.456 437.507,108.719 437.163,108.504 437.163 C 108.289 437.163,107.674 437.507,107.136 437.928 M103.729 440.241 C 102.607 441.012,101.684 441.783,101.676 441.954 C 101.668 442.126,102.489 441.686,103.500 440.977 C 104.511 440.267,105.518 439.565,105.737 439.415 C 105.956 439.266,106.053 439.075,105.952 438.991 C 105.850 438.908,104.850 439.470,103.729 440.241 M82.535 441.594 C 82.935 441.956,86.022 443.397,86.022 443.222 C 86.022 443.000,83.071 441.447,82.648 441.447 C 82.496 441.447,82.445 441.513,82.535 441.594 M98.123 443.186 C 97.360 443.467,95.985 443.824,95.067 443.979 C 94.149 444.135,93.481 444.344,93.582 444.445 C 93.897 444.761,98.484 443.721,99.211 443.169 C 100.055 442.529,99.902 442.531,98.123 443.186 M87.832 443.783 C 88.019 443.959,88.964 444.207,89.932 444.334 C 91.986 444.604,91.639 444.367,89.200 443.836 C 88.260 443.631,87.644 443.608,87.832 443.783" stroke="none" fill="#28cc64" fill-rule="evenodd"/><path id="path2" d="M340.109 0.417 C 338.890 0.598,336.778 1.251,335.417 1.868 C 334.056 2.485,332.815 3.027,332.660 3.071 C 332.505 3.116,331.811 3.670,331.118 4.303 C 330.425 4.935,329.794 5.389,329.716 5.311 C 329.638 5.232,329.026 5.669,328.356 6.280 C 327.687 6.892,327.011 7.314,326.856 7.218 C 326.700 7.121,326.462 7.331,326.327 7.683 C 326.192 8.035,325.987 8.229,325.872 8.114 C 325.758 7.999,325.112 8.409,324.437 9.025 C 323.763 9.641,323.147 10.081,323.069 10.003 C 322.991 9.925,322.379 10.361,321.709 10.972 C 321.039 11.584,320.364 12.006,320.209 11.910 C 320.053 11.813,319.820 12.009,319.692 12.344 C 319.563 12.679,319.299 12.855,319.105 12.735 C 318.911 12.615,318.652 12.780,318.528 13.101 C 318.405 13.422,318.053 13.685,317.747 13.685 C 317.441 13.685,317.079 13.974,316.944 14.328 C 316.808 14.681,316.603 14.876,316.488 14.761 C 316.373 14.646,315.732 15.053,315.062 15.665 C 314.392 16.276,313.717 16.698,313.561 16.602 C 313.406 16.505,313.173 16.701,313.045 17.036 C 312.916 17.371,312.652 17.547,312.458 17.427 C 312.264 17.307,312.005 17.472,311.881 17.793 C 311.758 18.114,311.406 18.377,311.100 18.377 C 310.794 18.377,310.432 18.666,310.297 19.020 C 310.161 19.373,309.956 19.568,309.841 19.453 C 309.726 19.339,309.084 19.745,308.415 20.357 C 307.745 20.968,307.070 21.390,306.914 21.294 C 306.759 21.198,306.526 21.393,306.398 21.728 C 306.269 22.063,306.005 22.239,305.811 22.119 C 305.617 21.999,305.357 22.164,305.234 22.485 C 305.111 22.806,304.759 23.069,304.453 23.069 C 304.147 23.069,303.785 23.359,303.649 23.712 C 303.514 24.065,303.309 24.260,303.194 24.146 C 303.079 24.031,302.437 24.437,301.768 25.049 C 301.098 25.660,300.423 26.082,300.267 25.986 C 300.112 25.890,299.879 26.085,299.750 26.420 C 299.622 26.755,299.358 26.931,299.164 26.811 C 298.970 26.691,298.710 26.856,298.587 27.177 C 298.464 27.499,298.112 27.761,297.806 27.761 C 297.499 27.761,297.138 28.051,297.002 28.404 C 296.867 28.757,296.662 28.952,296.547 28.838 C 296.432 28.723,295.790 29.129,295.121 29.741 C 294.451 30.352,293.776 30.774,293.620 30.678 C 293.464 30.582,293.232 30.777,293.103 31.112 C 292.975 31.447,292.711 31.623,292.517 31.503 C 292.323 31.383,292.063 31.548,291.940 31.869 C 291.817 32.191,291.465 32.454,291.159 32.454 C 290.852 32.454,290.491 32.743,290.355 33.096 C 290.220 33.449,290.015 33.645,289.900 33.530 C 289.785 33.415,289.143 33.821,288.473 34.433 C 287.804 35.044,287.129 35.466,286.973 35.370 C 286.817 35.274,286.585 35.469,286.456 35.804 C 286.328 36.139,286.064 36.315,285.870 36.195 C 285.676 36.075,285.416 36.240,285.293 36.561 C 285.169 36.883,284.818 37.146,284.512 37.146 C 284.205 37.146,283.844 37.435,283.708 37.788 C 283.572 38.141,283.368 38.337,283.253 38.222 C 283.138 38.107,282.496 38.513,281.826 39.125 C 281.157 39.737,280.481 40.158,280.326 40.062 C 280.170 39.966,279.938 40.161,279.809 40.496 C 279.681 40.831,279.417 41.007,279.223 40.887 C 279.029 40.767,278.769 40.932,278.646 41.253 C 278.522 41.575,278.171 41.838,277.864 41.838 C 277.558 41.838,277.197 42.127,277.061 42.480 C 276.925 42.834,276.720 43.029,276.606 42.914 C 276.491 42.799,275.849 43.205,275.179 43.817 C 274.510 44.429,273.834 44.850,273.679 44.754 C 273.523 44.658,273.291 44.853,273.162 45.188 C 273.033 45.523,272.770 45.699,272.576 45.579 C 272.381 45.459,272.122 45.624,271.999 45.946 C 271.875 46.267,271.524 46.530,271.217 46.530 C 270.911 46.530,270.549 46.819,270.414 47.172 C 270.278 47.526,270.073 47.721,269.958 47.606 C 269.844 47.491,269.202 47.897,268.532 48.509 C 267.862 49.121,267.187 49.542,267.032 49.446 C 266.876 49.350,266.643 49.545,266.515 49.880 C 266.386 50.215,266.122 50.391,265.928 50.271 C 265.734 50.151,265.475 50.316,265.351 50.638 C 265.228 50.959,264.877 51.222,264.570 51.222 C 264.264 51.222,263.902 51.511,263.767 51.864 C 263.631 52.218,263.426 52.413,263.311 52.298 C 263.197 52.183,262.555 52.590,261.885 53.201 C 261.215 53.813,260.540 54.235,260.384 54.138 C 260.229 54.042,259.996 54.238,259.868 54.572 C 259.739 54.907,259.475 55.083,259.281 54.963 C 259.087 54.844,258.828 55.008,258.704 55.330 C 258.581 55.651,258.229 55.914,257.923 55.914 C 257.617 55.914,257.255 56.203,257.120 56.556 C 256.984 56.910,256.779 57.105,256.664 56.990 C 256.549 56.875,255.904 57.285,255.229 57.901 C 254.555 58.517,253.938 58.956,253.859 58.877 C 253.780 58.798,253.260 59.155,252.705 59.670 C 252.149 60.185,251.475 60.606,251.207 60.606 C 250.938 60.606,250.608 60.895,250.473 61.249 C 250.337 61.602,250.132 61.797,250.017 61.682 C 249.902 61.567,249.257 61.977,248.582 62.593 C 247.908 63.209,247.291 63.648,247.212 63.569 C 247.133 63.490,246.613 63.847,246.058 64.362 C 245.502 64.877,244.828 65.298,244.560 65.298 C 244.291 65.298,243.961 65.587,243.825 65.941 C 243.690 66.294,243.485 66.489,243.370 66.374 C 243.255 66.259,242.609 66.669,241.935 67.285 C 241.261 67.901,240.644 68.340,240.565 68.261 C 240.486 68.182,239.966 68.539,239.410 69.054 C 238.855 69.569,238.181 69.990,237.912 69.990 C 237.644 69.990,237.314 70.279,237.178 70.633 C 237.043 70.986,236.838 71.181,236.723 71.066 C 236.608 70.951,235.962 71.361,235.288 71.977 C 234.614 72.593,233.997 73.033,233.918 72.953 C 233.839 72.874,233.319 73.231,232.763 73.746 C 232.208 74.261,231.515 74.682,231.223 74.682 C 230.932 74.682,230.694 74.835,230.694 75.021 C 230.694 75.325,227.498 77.647,227.282 77.500 C 227.233 77.467,226.724 77.875,226.150 78.407 C 225.576 78.939,224.868 79.374,224.576 79.374 C 224.285 79.374,224.047 79.527,224.047 79.713 C 224.047 80.027,221.475 81.905,220.830 82.062 C 220.674 82.100,220.077 82.567,219.503 83.099 C 218.928 83.631,218.220 84.066,217.929 84.066 C 217.638 84.066,217.400 84.219,217.400 84.406 C 217.400 84.719,214.828 86.597,214.183 86.754 C 214.027 86.792,213.430 87.259,212.855 87.791 C 212.281 88.323,211.573 88.759,211.282 88.759 C 210.991 88.759,210.753 88.911,210.753 89.098 C 210.753 89.401,207.557 91.723,207.341 91.576 C 207.292 91.543,206.782 91.951,206.208 92.483 C 205.634 93.015,204.926 93.451,204.635 93.451 C 204.344 93.451,204.106 93.603,204.106 93.790 C 204.106 94.103,201.533 95.982,200.889 96.139 C 200.733 96.177,200.135 96.643,199.561 97.175 C 198.987 97.707,198.279 98.143,197.988 98.143 C 197.697 98.143,197.458 98.295,197.458 98.482 C 197.458 98.795,194.886 100.674,194.242 100.831 C 194.086 100.869,193.488 101.335,192.914 101.867 C 192.340 102.399,191.651 102.835,191.383 102.835 C 191.114 102.835,190.784 103.124,190.648 103.477 C 190.513 103.831,190.308 104.026,190.193 103.911 C 190.078 103.796,189.432 104.206,188.758 104.822 C 188.084 105.438,187.467 105.877,187.388 105.798 C 187.309 105.719,186.789 106.075,186.234 106.590 C 185.678 107.105,185.004 107.527,184.735 107.527 C 184.467 107.527,184.137 107.816,184.001 108.169 C 183.866 108.523,183.661 108.718,183.546 108.603 C 183.431 108.488,182.785 108.898,182.111 109.514 C 181.437 110.130,180.820 110.569,180.741 110.490 C 180.662 110.411,180.142 110.767,179.586 111.282 C 179.031 111.798,178.357 112.219,178.088 112.219 C 177.820 112.219,177.490 112.508,177.354 112.861 C 177.219 113.215,177.014 113.410,176.899 113.295 C 176.784 113.180,176.138 113.590,175.464 114.206 C 174.790 114.822,174.173 115.261,174.094 115.182 C 174.015 115.103,173.495 115.459,172.939 115.975 C 172.384 116.490,171.709 116.911,171.441 116.911 C 171.173 116.911,170.843 117.200,170.707 117.554 C 170.572 117.907,170.367 118.102,170.252 117.987 C 170.137 117.872,169.491 118.282,168.817 118.898 C 168.142 119.514,167.527 119.954,167.448 119.876 C 167.370 119.797,166.758 120.234,166.088 120.845 C 165.419 121.457,164.743 121.879,164.588 121.783 C 164.432 121.686,164.194 121.896,164.059 122.248 C 163.924 122.600,163.719 122.794,163.605 122.679 C 163.490 122.564,162.844 122.974,162.170 123.590 C 161.495 124.206,160.879 124.646,160.801 124.568 C 160.723 124.490,160.111 124.926,159.441 125.537 C 158.772 126.149,158.096 126.571,157.941 126.475 C 157.785 126.378,157.547 126.588,157.412 126.940 C 157.277 127.292,157.072 127.486,156.958 127.371 C 156.843 127.256,156.197 127.666,155.523 128.282 C 154.848 128.898,154.232 129.338,154.154 129.260 C 154.076 129.182,153.464 129.618,152.794 130.230 C 152.124 130.841,151.449 131.263,151.294 131.167 C 151.138 131.070,150.900 131.280,150.765 131.632 C 150.630 131.984,150.425 132.178,150.310 132.063 C 150.196 131.949,149.550 132.359,148.875 132.974 C 148.201 133.590,147.585 134.030,147.507 133.952 C 147.429 133.874,146.817 134.310,146.147 134.922 C 145.477 135.533,144.802 135.955,144.646 135.859 C 144.491 135.763,144.258 135.958,144.130 136.293 C 144.001 136.628,143.737 136.804,143.543 136.684 C 143.349 136.564,143.090 136.729,142.966 137.050 C 142.843 137.371,142.491 137.634,142.185 137.634 C 141.879 137.634,141.517 137.924,141.382 138.277 C 141.246 138.630,141.041 138.825,140.926 138.711 C 140.811 138.596,140.169 139.002,139.500 139.614 C 138.830 140.225,138.155 140.647,137.999 140.551 C 137.844 140.455,137.611 140.650,137.483 140.985 C 137.354 141.320,137.090 141.496,136.896 141.376 C 136.702 141.256,136.442 141.421,136.319 141.742 C 136.196 142.064,135.844 142.326,135.538 142.326 C 135.232 142.326,134.870 142.616,134.734 142.969 C 134.599 143.322,134.394 143.517,134.279 143.403 C 134.164 143.288,133.522 143.694,132.853 144.306 C 132.183 144.917,131.508 145.339,131.352 145.243 C 131.197 145.147,130.964 145.342,130.836 145.677 C 130.707 146.012,130.443 146.188,130.249 146.068 C 130.055 145.948,129.795 146.113,129.672 146.434 C 129.549 146.756,129.197 147.019,128.891 147.019 C 128.585 147.019,128.223 147.308,128.087 147.661 C 127.952 148.014,127.747 148.210,127.632 148.095 C 127.517 147.980,126.875 148.386,126.206 148.998 C 125.536 149.609,124.861 150.031,124.705 149.935 C 124.549 149.839,124.317 150.034,124.188 150.369 C 124.060 150.704,123.796 150.880,123.602 150.760 C 123.408 150.640,123.148 150.805,123.025 151.126 C 122.902 151.448,122.550 151.711,122.244 151.711 C 121.937 151.711,121.576 152.000,121.440 152.353 C 121.305 152.706,121.100 152.902,120.985 152.787 C 120.870 152.672,120.228 153.078,119.559 153.690 C 118.889 154.302,118.214 154.723,118.058 154.627 C 117.902 154.531,117.670 154.726,117.541 155.061 C 117.413 155.396,117.149 155.572,116.955 155.452 C 116.761 155.332,116.501 155.497,116.378 155.818 C 116.254 156.140,115.903 156.403,115.597 156.403 C 115.290 156.403,114.929 156.692,114.793 157.045 C 114.658 157.399,114.453 157.594,114.338 157.479 C 114.223 157.364,113.581 157.770,112.911 158.382 C 112.242 158.994,111.567 159.415,111.411 159.319 C 111.255 159.223,111.017 159.432,110.882 159.785 C 110.747 160.137,110.542 160.330,110.427 160.215 C 110.311 160.099,109.809 160.382,109.310 160.843 C 108.812 161.304,107.939 162.000,107.371 162.390 C 106.803 162.780,106.436 163.258,106.556 163.452 C 106.677 163.647,106.416 164.030,105.978 164.304 C 105.540 164.578,105.181 165.011,105.181 165.267 C 105.181 165.522,104.959 165.964,104.688 166.248 C 103.591 167.397,101.584 175.107,102.009 176.540 C 102.073 176.755,102.178 177.546,102.243 178.299 C 102.406 180.201,103.656 183.535,105.101 185.924 C 105.622 186.784,121.327 202.796,140.002 221.505 C 177.087 258.660,175.573 256.963,176.768 262.718 C 177.585 266.654,176.279 275.088,174.773 275.595 C 174.559 275.668,174.470 275.865,174.575 276.035 C 174.680 276.205,174.347 276.795,173.836 277.346 C 173.325 277.897,173.002 278.443,173.118 278.559 C 173.233 278.675,173.039 278.880,172.685 279.016 C 172.332 279.152,172.043 279.482,172.043 279.750 C 172.043 280.018,171.603 280.712,171.065 281.292 C 170.528 281.873,170.088 282.495,170.088 282.676 C 170.088 282.857,169.813 283.111,169.477 283.240 C 169.140 283.369,168.976 283.653,169.110 283.871 C 169.245 284.089,169.081 284.373,168.746 284.501 C 168.412 284.630,168.236 284.894,168.355 285.088 C 168.475 285.282,168.298 285.546,167.962 285.675 C 167.626 285.804,167.351 286.129,167.351 286.397 C 167.351 286.665,166.911 287.359,166.373 287.940 C 165.836 288.520,165.396 289.167,165.396 289.377 C 165.396 289.588,165.133 289.862,164.812 289.985 C 164.490 290.108,164.325 290.368,164.445 290.562 C 164.565 290.756,164.389 291.020,164.054 291.148 C 163.719 291.277,163.543 291.541,163.663 291.735 C 163.783 291.929,163.606 292.193,163.270 292.322 C 162.934 292.451,162.659 292.776,162.659 293.044 C 162.659 293.313,162.219 294.007,161.681 294.587 C 161.144 295.167,160.704 295.783,160.704 295.955 C 160.704 296.128,160.282 296.724,159.767 297.279 C 159.252 297.835,158.926 298.385,159.041 298.500 C 159.157 298.616,158.963 298.822,158.609 298.957 C 158.256 299.093,157.967 299.423,157.967 299.691 C 157.967 299.960,157.527 300.654,156.989 301.234 C 156.452 301.814,156.012 302.430,156.012 302.602 C 156.012 302.775,155.572 303.391,155.034 303.971 C 154.497 304.551,154.057 305.193,154.057 305.396 C 154.057 305.600,153.881 305.767,153.666 305.767 C 153.451 305.767,153.275 306.006,153.275 306.297 C 153.275 306.588,152.835 307.301,152.297 307.881 C 151.760 308.461,151.320 309.077,151.320 309.249 C 151.320 309.422,150.880 310.038,150.342 310.618 C 149.804 311.198,149.365 311.840,149.365 312.044 C 149.365 312.248,149.189 312.414,148.974 312.414 C 148.759 312.414,148.583 312.653,148.583 312.944 C 148.583 313.235,148.143 313.948,147.605 314.528 C 147.067 315.108,146.628 315.724,146.628 315.897 C 146.628 316.069,146.188 316.685,145.650 317.265 C 145.112 317.845,144.673 318.487,144.673 318.691 C 144.673 318.895,144.497 319.062,144.282 319.062 C 144.066 319.062,143.891 319.331,143.891 319.660 C 143.891 319.990,143.628 320.360,143.306 320.483 C 142.985 320.607,142.820 320.866,142.940 321.060 C 143.060 321.254,142.883 321.519,142.547 321.648 C 142.211 321.777,141.935 322.102,141.935 322.370 C 141.935 322.638,141.496 323.332,140.958 323.912 C 140.420 324.492,139.980 325.115,139.980 325.296 C 139.980 325.477,139.705 325.731,139.369 325.860 C 139.033 325.989,138.868 326.273,139.003 326.491 C 139.138 326.709,138.974 326.992,138.639 327.121 C 138.304 327.249,138.128 327.513,138.248 327.707 C 138.368 327.902,138.191 328.166,137.855 328.295 C 137.518 328.424,137.243 328.749,137.243 329.017 C 137.243 329.285,136.804 329.979,136.266 330.559 C 135.728 331.139,135.288 331.787,135.288 331.997 C 135.288 332.208,135.025 332.481,134.704 332.605 C 134.383 332.728,134.218 332.988,134.338 333.182 C 134.458 333.376,134.282 333.640,133.947 333.768 C 133.612 333.897,133.436 334.161,133.556 334.355 C 133.676 334.549,133.499 334.813,133.163 334.942 C 132.826 335.071,132.551 335.396,132.551 335.664 C 132.551 335.932,132.111 336.626,131.574 337.206 C 131.036 337.787,130.596 338.402,130.596 338.575 C 130.596 338.748,130.175 339.343,129.660 339.899 C 129.145 340.455,128.818 341.004,128.934 341.120 C 129.049 341.236,128.855 341.442,128.502 341.577 C 128.148 341.713,127.859 342.043,127.859 342.311 C 127.859 342.579,127.419 343.273,126.882 343.854 C 126.344 344.434,125.904 345.050,125.904 345.222 C 125.904 345.395,125.464 346.010,124.927 346.591 C 124.389 347.171,123.949 347.812,123.949 348.016 C 123.949 348.220,123.773 348.387,123.558 348.387 C 123.343 348.387,123.167 348.625,123.167 348.917 C 123.167 349.208,122.727 349.921,122.190 350.501 C 121.652 351.081,121.212 351.697,121.212 351.869 C 121.212 352.042,120.772 352.658,120.235 353.238 C 119.697 353.818,119.257 354.459,119.257 354.663 C 119.257 354.867,119.081 355.034,118.866 355.034 C 118.651 355.034,118.475 355.272,118.475 355.564 C 118.475 355.855,118.035 356.568,117.498 357.148 C 116.960 357.728,116.520 358.344,116.520 358.516 C 116.520 358.689,116.080 359.305,115.543 359.885 C 115.005 360.465,114.565 361.106,114.565 361.310 C 114.565 361.514,114.389 361.681,114.174 361.681 C 113.959 361.681,113.783 361.951,113.783 362.280 C 113.783 362.609,113.520 362.980,113.199 363.103 C 112.877 363.226,112.713 363.486,112.833 363.680 C 112.952 363.874,112.775 364.138,112.439 364.267 C 112.103 364.396,111.828 364.721,111.828 364.990 C 111.828 365.258,111.388 365.952,110.850 366.532 C 110.313 367.112,109.873 367.735,109.873 367.916 C 109.873 368.097,109.598 368.350,109.262 368.479 C 108.925 368.608,108.761 368.892,108.895 369.110 C 109.030 369.329,108.866 369.612,108.531 369.741 C 108.196 369.869,108.020 370.133,108.140 370.327 C 108.260 370.521,108.083 370.786,107.747 370.915 C 107.411 371.044,107.136 371.369,107.136 371.637 C 107.136 371.905,106.696 372.599,106.158 373.179 C 105.621 373.759,105.181 374.406,105.181 374.617 C 105.181 374.828,104.918 375.101,104.597 375.224 C 104.275 375.348,104.110 375.607,104.230 375.801 C 104.350 375.995,104.174 376.259,103.839 376.388 C 103.504 376.516,103.328 376.780,103.448 376.974 C 103.568 377.168,103.391 377.433,103.055 377.562 C 102.719 377.691,102.444 378.016,102.444 378.284 C 102.444 378.552,102.004 379.246,101.466 379.826 C 100.929 380.406,100.489 381.022,100.489 381.195 C 100.489 381.367,100.067 381.963,99.552 382.519 C 99.037 383.075,98.710 383.624,98.826 383.740 C 98.942 383.856,98.748 384.061,98.394 384.197 C 98.041 384.332,97.752 384.663,97.752 384.931 C 97.752 385.199,97.312 385.893,96.774 386.473 C 96.237 387.053,95.797 387.669,95.797 387.842 C 95.797 388.014,95.357 388.630,94.819 389.210 C 94.282 389.790,93.842 390.432,93.842 390.636 C 93.842 390.840,93.666 391.007,93.451 391.007 C 93.236 391.007,93.060 391.245,93.060 391.536 C 93.060 391.827,92.620 392.540,92.082 393.120 C 91.544 393.701,91.105 394.316,91.105 394.489 C 91.105 394.662,90.665 395.277,90.127 395.857 C 89.589 396.438,89.150 397.079,89.150 397.283 C 89.150 397.487,88.974 397.654,88.759 397.654 C 88.543 397.654,88.368 397.892,88.368 398.183 C 88.368 398.475,87.928 399.187,87.390 399.768 C 86.852 400.348,86.413 400.963,86.413 401.136 C 86.413 401.309,85.973 401.924,85.435 402.505 C 84.897 403.085,84.457 403.726,84.457 403.930 C 84.457 404.134,84.282 404.301,84.066 404.301 C 83.851 404.301,83.675 404.539,83.675 404.830 C 83.675 405.122,83.236 405.835,82.698 406.415 C 82.160 406.995,81.720 407.611,81.720 407.783 C 81.720 407.956,81.281 408.572,80.743 409.152 C 80.205 409.732,79.765 410.373,79.765 410.577 C 79.765 410.781,79.589 410.948,79.374 410.948 C 79.159 410.948,78.983 411.218,78.983 411.547 C 78.983 411.876,78.720 412.247,78.399 412.370 C 78.078 412.493,77.913 412.753,78.033 412.947 C 78.153 413.141,77.976 413.405,77.640 413.534 C 77.303 413.663,77.028 413.999,77.028 414.281 C 77.028 414.563,76.891 414.852,76.724 414.923 C 76.557 414.995,75.932 416.197,75.336 417.595 C 74.739 418.993,74.111 420.401,73.940 420.723 C 73.543 421.472,73.643 428.877,74.064 429.912 C 79.189 442.517,90.625 447.596,101.064 441.903 C 105.781 439.332,325.534 283.802,327.904 281.358 C 334.530 274.525,334.951 264.308,328.918 256.696 C 328.407 256.051,312.977 240.479,294.629 222.092 C 267.888 195.294,261.066 188.254,260.248 186.612 C 257.665 181.423,257.490 175.684,259.749 170.180 C 260.261 168.932,280.374 140.125,309.677 98.671 C 336.667 60.490,359.260 28.256,359.885 27.040 C 361.710 23.490,362.167 19.081,361.188 14.467 C 360.563 11.526,355.616 4.301,354.226 4.301 C 354.047 4.301,353.759 4.079,353.587 3.807 C 352.265 1.717,344.501 -0.236,340.109 0.417" stroke="none" fill="#24cc5c" fill-rule="evenodd"/><path id="path3" d="M228.055 32.723 C 228.431 32.821,229.047 32.821,229.423 32.723 C 229.800 32.625,229.492 32.544,228.739 32.544 C 227.986 32.544,227.678 32.625,228.055 32.723 M233.729 33.121 C 234.215 33.215,234.919 33.211,235.293 33.113 C 235.667 33.015,235.269 32.939,234.409 32.943 C 233.548 32.948,233.243 33.028,233.729 33.121 M238.612 33.114 C 238.988 33.212,239.604 33.212,239.980 33.114 C 240.357 33.016,240.049 32.935,239.296 32.935 C 238.543 32.935,238.236 33.016,238.612 33.114 M58.252 67.937 L 54.545 71.750 58.358 68.043 C 60.455 66.004,62.170 64.289,62.170 64.231 C 62.170 63.947,61.695 64.397,58.252 67.937 M91.097 86.315 L 87.390 90.127 91.202 86.420 C 93.299 84.381,95.015 82.666,95.015 82.608 C 95.015 82.325,94.540 82.774,91.097 86.315 M85.218 92.571 L 83.871 94.037 85.337 92.690 C 86.702 91.435,86.983 91.105,86.685 91.105 C 86.619 91.105,85.960 91.764,85.218 92.571 M350.342 91.618 C 350.342 91.685,350.914 92.257,351.613 92.889 L 352.884 94.037 351.735 92.766 C 350.665 91.582,350.342 91.316,350.342 91.618 M0.091 206.452 C 0.091 207.204,0.171 207.512,0.270 207.136 C 0.368 206.760,0.368 206.144,0.270 205.767 C 0.171 205.391,0.091 205.699,0.091 206.452 M0.091 215.445 C 0.091 216.197,0.171 216.505,0.270 216.129 C 0.368 215.753,0.368 215.137,0.270 214.761 C 0.171 214.384,0.091 214.692,0.091 215.445 M343.098 335.973 L 340.371 338.807 343.206 336.081 C 345.839 333.548,346.220 333.138,345.933 333.138 C 345.873 333.138,344.598 334.413,343.098 335.973 M348.757 343.988 L 347.410 345.455 348.876 344.107 C 350.241 342.853,350.522 342.522,350.223 342.522 C 350.158 342.522,349.498 343.182,348.757 343.988 M59.433 353.275 C 63.192 357.038,66.355 360.117,66.463 360.117 C 66.570 360.117,63.583 357.038,59.824 353.275 C 56.065 349.511,52.902 346.432,52.794 346.432 C 52.687 346.432,55.674 349.511,59.433 353.275 M341.734 351.417 L 337.243 356.012 341.838 351.522 C 346.105 347.351,346.610 346.823,346.328 346.823 C 346.271 346.823,344.203 348.891,341.734 351.417 M333.899 358.847 L 332.551 360.313 334.018 358.965 C 335.382 357.711,335.664 357.380,335.365 357.380 C 335.300 357.380,334.640 358.040,333.899 358.847 M67.644 361.022 C 67.644 361.089,68.216 361.661,68.915 362.292 L 70.186 363.441 69.037 362.170 C 67.967 360.986,67.644 360.720,67.644 361.022 M201.271 411.224 C 201.755 411.317,202.546 411.317,203.030 411.224 C 203.514 411.131,203.118 411.055,202.151 411.055 C 201.183 411.055,200.787 411.131,201.271 411.224 M204.794 411.225 C 205.281 411.318,205.985 411.315,206.358 411.217 C 206.732 411.119,206.334 411.042,205.474 411.047 C 204.614 411.051,204.308 411.131,204.794 411.225" stroke="none" fill="#f4f4f4" fill-rule="evenodd"/><path id="path4" d="M139.198 221.114 C 157.154 239.071,171.934 253.763,172.041 253.763 C 172.149 253.763,157.545 239.071,139.589 221.114 C 121.633 203.157,106.854 188.465,106.747 188.465 C 106.639 188.465,121.242 203.157,139.198 221.114" stroke="none" fill="#2ccc5c" fill-rule="evenodd"/></g></svg>